<svg width="46" height="46" viewBox="0 0 46 46" fill="none" xmlns="http://www.w3.org/2000/svg">
<g clip-path="url(#clip0_262_5342)">
<path d="M44.012 9.15543C42.7054 6.75203 41.0525 4.80695 39.1093 3.35373C37.1885 1.90051 34.9103 0.905616 32.3417 0.369043C30.231 -0.0669233 28.0756 -0.111638 25.9091 0.234899C25.6969 0.268435 25.4847 0.31315 25.2948 0.346685C22.179 0.995045 19.4206 2.44827 17.0865 4.67281C14.1606 7.45628 12.4072 10.8993 11.8823 14.8901C11.4133 18.456 12.0164 21.8767 13.6915 25.0626C13.792 25.2526 13.7585 25.4762 13.6022 25.6215C10.0955 29.1204 6.53299 32.6864 3.08215 36.1406L1.67502 37.5379C1.474 37.7392 1.28415 37.9292 1.11663 38.1304C-0.000146607 39.4718 -0.301676 41.2381 0.301383 42.859C0.893274 44.4799 2.26691 45.6201 3.96441 45.9219C4.26594 45.9778 4.5563 46.0001 4.84666 46.0001C6.13095 46.0001 7.2924 45.4859 8.31983 44.4575C12.5747 40.1984 16.5281 36.2524 20.3922 32.3622C20.5709 32.1834 20.6379 32.1498 20.8277 32.2505C23.5638 33.7037 26.5345 34.3632 29.6726 34.2179C32.8777 34.0614 35.7925 33.1112 38.3276 31.3897C42.4597 28.5727 44.9613 24.6714 45.7542 19.7975C46.3796 15.9744 45.7877 12.3861 44.012 9.15543ZM43.2526 17.1034C43.2638 20.9489 41.7561 24.5707 39.02 27.3095C36.2951 30.0371 32.6991 31.535 28.902 31.535C28.8908 31.535 28.8685 31.535 28.8573 31.535C20.9729 31.5127 14.5179 25.0514 14.4621 17.137C14.4398 13.3251 15.9251 9.71437 18.65 6.9756C21.3861 4.22567 25.0156 2.70537 28.8573 2.70537C28.8573 2.70537 28.8573 2.70537 28.8685 2.70537C36.7753 2.70537 43.2302 9.16661 43.2526 17.1034ZM16.1931 32.6641L13.3788 29.8471L15.255 27.9802L18.047 30.7972L16.1931 32.6641ZM14.1494 34.7433C14.1271 34.7656 14.1047 34.788 14.0824 34.8104L12.5524 36.3418C10.4975 38.3987 8.45385 40.4556 6.39898 42.5012C5.49439 43.4067 4.34411 43.5073 3.47303 42.7695C2.63544 42.0653 2.50143 40.8245 3.18266 39.9525C3.28317 39.8296 3.38368 39.7066 3.49536 39.606C6.06395 37.0237 8.6437 34.4526 11.2123 31.8816C11.2235 31.8704 11.2346 31.8592 11.2458 31.848L14.1494 34.7433Z" fill="#357D3D"/>
<path d="M28.9021 5.47752C28.8686 5.47752 28.8239 5.47752 28.7904 5.47752C25.7528 5.47752 22.8827 6.66246 20.705 8.81993C18.4714 11.0221 17.2318 13.9621 17.2206 17.1033C17.1871 23.4974 22.3913 28.729 28.8239 28.7849C28.8463 28.7849 28.8798 28.7849 28.9021 28.7849C31.9509 28.7849 34.8322 27.6 37.0211 25.4314C39.2434 23.2292 40.4831 20.2892 40.4942 17.148C40.5054 14.0515 39.3104 11.1339 37.1327 8.93172C34.9439 6.72953 32.0291 5.49988 28.9021 5.47752ZM37.747 17.1033C37.7581 19.4731 36.8312 21.72 35.156 23.408C33.4697 25.096 31.2362 26.035 28.8574 26.035C23.9771 26.035 19.9902 22.0554 19.9567 17.1592C19.9456 14.7893 20.8613 12.5536 22.5365 10.8656C24.2116 9.17764 26.4564 8.23864 28.8351 8.22746C28.8574 8.22746 28.8686 8.22746 28.8909 8.22746C31.2362 8.22746 33.4474 9.13293 35.1114 10.7874C36.8089 12.4642 37.747 14.7111 37.747 17.1033Z" fill="#357D3D"/>
<path d="M28.8686 9.68068C26.8919 9.71422 25.1721 10.3961 23.765 11.704C23.0837 12.33 23.0056 13.1349 23.5528 13.7497C23.8208 14.0515 24.167 14.1968 24.5132 14.1968C24.8594 14.1968 25.2279 14.0515 25.563 13.7609C27.6625 11.9611 30.0636 11.9723 32.1408 13.7721C32.7997 14.3422 33.6373 14.331 34.1621 13.7273C34.6759 13.1461 34.5977 12.33 33.9835 11.7487C32.5763 10.4073 30.8565 9.71422 28.8686 9.68068Z" fill="#357D3D"/>
</g>
<defs>
<clipPath id="clip0_262_5342">
<rect width="46" height="46" fill="white"/>
</clipPath>
</defs>
</svg>
