<svg width="60" height="43" viewBox="0 0 60 43" fill="none" xmlns="http://www.w3.org/2000/svg">
<g clip-path="url(#clip0_262_5347)">
<path d="M25.4385 11.7421C28.5063 11.7421 31.4707 11.7421 34.5385 11.7421C34.5385 11.0535 34.55 10.3882 34.5385 9.72285C34.458 6.5247 35.584 3.8868 38.0773 1.91422C42.8112 -1.83252 49.8085 0.151733 51.9341 5.85939C54.1746 11.8588 56.3117 17.905 58.5523 23.9044C59.2072 25.6669 59.8391 27.4061 59.9655 29.3203C60.4366 36.8605 54.0253 43.4435 46.5913 42.9416C41.915 42.6265 38.4105 40.3854 36.0322 36.2885C35.9747 36.1835 35.9058 36.0784 35.8138 35.9384C34.8257 36.522 33.8491 37.0939 32.8839 37.6775C30.9307 38.8564 28.9889 38.8447 27.0471 37.6542C26.1049 37.0706 25.1513 36.522 24.1516 35.915C24.0138 36.1601 23.8989 36.3702 23.7725 36.5803C21.0034 41.3426 15.4768 43.8521 10.2604 42.7199C4.74529 41.5293 0.689372 37.0589 0.0689204 31.4563C-0.160877 29.3903 0.0919001 27.3711 0.815761 25.4101C2.89542 19.7959 4.95211 14.1816 7.04326 8.56732C7.58328 7.17834 8.04288 5.731 8.76674 4.43539C10.743 0.957108 14.9023 -0.723674 18.671 0.303471C22.6005 1.36563 25.3121 4.79723 25.4385 8.88246C25.4615 9.81623 25.4385 10.7617 25.4385 11.7421ZM22.5775 21.5817C22.5775 17.3564 22.635 13.1544 22.5546 8.94082C22.4971 5.83604 20.314 3.45494 17.2692 2.96471C14.4887 2.5095 11.6852 4.2253 10.6511 7.0266C9.30676 10.7267 7.95096 14.4384 6.60665 18.1384C6.5492 18.3018 6.51473 18.4653 6.46877 18.6403C12.5699 15.7457 17.9241 16.7378 22.5775 21.5817ZM37.4224 21.5584C42.0528 16.7378 47.4301 15.734 53.4967 18.6287C53.5082 18.582 53.5197 18.5353 53.5082 18.5003C52.072 14.5668 50.6817 10.6099 49.1765 6.69978C48.1654 4.06189 45.3274 2.52117 42.6618 2.98805C39.7549 3.50163 37.4914 5.82437 37.4339 8.614C37.3535 12.921 37.4224 17.2397 37.4224 21.5584ZM47.2118 19.9243C41.7311 19.9243 37.296 24.4414 37.296 30.009C37.296 35.5415 41.7426 40.0703 47.1773 40.082C52.658 40.0936 57.185 35.5765 57.1275 30.0206C57.0586 24.348 52.7614 19.971 47.2118 19.9243ZM22.6809 30.0206C22.6695 24.3947 18.2459 19.8892 12.6963 19.9359C7.15816 19.9826 2.89542 24.4297 2.87244 30.0556C2.84946 35.5999 7.342 40.0936 12.7882 40.082C18.2459 40.082 22.7039 35.5415 22.6809 30.0206ZM34.458 23.3559C34.458 20.4495 34.458 17.6015 34.458 14.7302C31.4707 14.7302 28.5063 14.7302 25.5534 14.7302C25.5534 17.6365 25.5534 20.4962 25.5534 23.3559C28.5523 23.3559 31.4592 23.3559 34.458 23.3559ZM25.5419 26.3089C25.5419 26.5073 25.5419 26.6357 25.5419 26.7641C25.5075 28.8067 25.7143 30.8727 25.2432 32.892C25.2202 33.0087 25.3581 33.2421 25.473 33.3122C26.6105 34.0125 27.748 34.7128 28.9199 35.3664C29.6208 35.7633 30.3791 35.7633 31.08 35.3664C32.2405 34.7128 33.3895 34.0242 34.527 33.3238C34.6534 33.2538 34.7912 33.0204 34.7568 32.892C34.2742 30.861 34.4695 28.8067 34.4351 26.7641C34.4351 26.6007 34.4006 26.449 34.3891 26.2972C31.4247 26.3089 28.5178 26.3089 25.5419 26.3089Z" fill="white"/>
<path d="M47.0507 37.4911C42.9718 37.4911 39.6627 34.1412 39.6742 29.9859C39.6742 25.854 43.0178 22.4691 47.0737 22.4925C51.1411 22.5158 54.4387 25.9007 54.4272 30.0443C54.4042 34.1529 51.1066 37.4911 47.0507 37.4911ZM51.5547 30.021C51.5662 27.4764 49.544 25.4105 47.0622 25.3988C44.5689 25.3871 42.5352 27.4414 42.5352 29.9859C42.5237 32.5305 44.5229 34.5848 47.0277 34.5964C49.521 34.6081 51.5547 32.5538 51.5547 30.021Z" fill="white"/>
<path d="M12.7765 37.4911C8.68614 37.4911 5.40004 34.1412 5.41153 29.9859C5.42302 25.8424 8.75508 22.4691 12.811 22.4925C16.8439 22.5158 20.153 25.9007 20.1645 29.9859C20.176 34.1295 16.8554 37.4911 12.7765 37.4911ZM17.3035 30.021C17.315 27.4881 15.2813 25.4105 12.7995 25.3988C10.3062 25.3988 8.28399 27.4414 8.2725 29.9859C8.26101 32.5305 10.2602 34.5848 12.765 34.5964C15.2468 34.6198 17.292 32.5538 17.3035 30.021Z" fill="white"/>
</g>
<defs>
<clipPath id="clip0_262_5347">
<rect width="60" height="43" fill="white"/>
</clipPath>
</defs>
</svg>
