<svg width="22" height="22" viewBox="0 0 22 22" fill="none" xmlns="http://www.w3.org/2000/svg">
<g clip-path="url(#clip0_257_5732)">
<path d="M11.1462 2.50594C11.5765 0.85465 12.9131 0.0863409 14.049 0.00606989C15.5921 -0.102869 17.032 0.906252 17.4221 2.50594C17.5311 2.50594 17.6459 2.50594 17.7606 2.50594C18.9251 2.50594 20.0954 2.50021 21.2599 2.50594C21.7877 2.50594 22.1262 2.97037 21.9541 3.43479C21.8508 3.71574 21.6041 3.87628 21.2657 3.87628C20.0725 3.87628 18.8735 3.87628 17.6803 3.87628C17.5942 3.87628 17.5082 3.87628 17.4279 3.87628C16.9288 5.73398 15.3799 6.41055 14.2555 6.39335C13.0336 6.37615 11.6052 5.61931 11.1405 3.87628C11.0545 3.87628 10.9627 3.87628 10.8709 3.87628C7.52069 3.87628 4.1705 3.87628 0.820303 3.87628C0.573628 3.87628 0.349899 3.83615 0.1778 3.64693C-0.154925 3.27425 0.0114373 2.67795 0.487578 2.54034C0.602311 2.50594 0.728517 2.50594 0.848986 2.50594C4.18197 2.50594 7.52069 2.50594 10.8537 2.50594C10.9512 2.50594 11.043 2.50594 11.1462 2.50594ZM14.2785 1.37641C13.2688 1.37641 12.4542 2.19632 12.4599 3.20544C12.4657 4.2031 13.2803 5.01728 14.2785 5.02301C15.2766 5.02874 16.1142 4.19737 16.1142 3.19971C16.1084 2.19059 15.2824 1.37641 14.2785 1.37641Z" fill="#4E4E4E"/>
<path d="M11.1463 19.4951C11.0487 19.4951 10.9569 19.4951 10.8652 19.4951C7.5207 19.4951 4.18198 19.4951 0.837523 19.4951C0.705581 19.4951 0.562165 19.4836 0.435959 19.4435C0.137654 19.3403 -0.0401819 19.0134 0.00571119 18.7038C0.0573409 18.3827 0.321226 18.1419 0.653951 18.1247C0.734264 18.119 0.80884 18.1247 0.889153 18.1247C4.2164 18.1247 7.54365 18.1247 10.8709 18.1305C11.0717 18.1305 11.1577 18.0789 11.2151 17.8724C11.5995 16.5365 12.9017 15.5905 14.2957 15.6077C15.7069 15.6249 16.9689 16.5766 17.3418 17.9183C17.3877 18.0846 17.4508 18.1305 17.6172 18.1247C18.8391 18.119 20.0667 18.119 21.2886 18.1247C21.6328 18.1247 21.9025 18.3426 21.977 18.658C22.0459 18.9446 21.9082 19.2715 21.6328 19.3976C21.5009 19.4607 21.346 19.4893 21.1968 19.4893C20.0151 19.4951 18.8334 19.4951 17.6516 19.4893C17.468 19.4893 17.3877 19.5237 17.3304 19.7187C16.9288 21.0833 15.6323 22.0523 14.1178 21.9949C12.8271 21.9491 11.5765 20.9915 11.2036 19.6843C11.1922 19.6269 11.1749 19.5696 11.1463 19.4951ZM14.2785 20.6246C15.2881 20.6246 16.1084 19.8047 16.1084 18.8013C16.1084 17.8094 15.2881 16.9837 14.2957 16.978C13.2918 16.9723 12.4657 17.7922 12.4599 18.7956C12.4542 19.8047 13.2688 20.6189 14.2785 20.6246Z" fill="#4E4E4E"/>
<path d="M4.58931 10.3152C4.80157 9.46088 5.2605 8.78431 6.00052 8.30842C6.54551 7.95867 7.14212 7.79813 7.79036 7.80386C9.00079 7.80959 10.412 8.6123 10.8595 10.3095C10.9398 10.3095 11.0258 10.3095 11.1061 10.3095C14.4563 10.3095 17.8065 10.3095 21.1567 10.3095C21.2542 10.3095 21.3575 10.3037 21.455 10.3267C21.7935 10.4012 22.023 10.7166 21.9943 11.0548C21.9656 11.3931 21.6902 11.6626 21.3403 11.6855C21.2715 11.6913 21.1969 11.6855 21.128 11.6855C17.7893 11.6855 14.4563 11.6855 11.1176 11.6855C11.0316 11.6855 10.9455 11.6855 10.848 11.6855C10.6357 12.5399 10.1768 13.2107 9.44251 13.6866C8.90326 14.0363 8.31239 14.1969 7.67562 14.1911C6.35046 14.1797 4.98514 13.2852 4.58358 11.6855C4.38853 11.6855 4.18775 11.6855 3.98697 11.6855C2.89701 11.6855 1.81278 11.6913 0.72282 11.6855C0.195049 11.6855 -0.149149 11.1867 0.0631065 10.7223C0.195049 10.4299 0.435988 10.3095 0.751503 10.3095C1.94472 10.3152 3.14368 10.3095 4.3369 10.3095C4.41721 10.3152 4.49753 10.3152 4.58931 10.3152ZM7.6871 12.8208C8.6738 12.8437 9.51708 12.0468 9.54003 11.0663C9.56298 10.0342 8.78853 9.2086 7.76167 9.17993C6.7635 9.15127 5.91448 9.95971 5.89153 10.9631C5.87432 11.9665 6.67171 12.7979 7.6871 12.8208Z" fill="#4E4E4E"/>
</g>
<defs>
<clipPath id="clip0_257_5732">
<rect width="22" height="22" fill="white"/>
</clipPath>
</defs>
</svg>
