<svg width="35" height="35" viewBox="0 0 35 35" fill="none" xmlns="http://www.w3.org/2000/svg">
<g clip-path="url(#clip0_262_5235)">
<path d="M17.3546 34.7091C9.92602 34.9624 2.15357 29.5787 0.380115 21.01C0.135812 19.8699 0.0905708 18.6846 8.83574e-05 17.5174C-0.0451529 16.8478 0.434404 16.3683 1.04969 16.3592C1.68306 16.3502 2.14452 16.8207 2.16262 17.5083C2.24405 21.8605 3.84559 25.5522 7.00343 28.5291C9.39217 30.7821 12.2424 32.1213 15.4997 32.4922C22.304 33.2613 28.5473 29.7597 31.2256 23.4621C33.6053 17.8612 32.7909 12.559 29.0088 7.79052C26.7105 4.89508 23.6432 3.18497 20.0148 2.4973C19.8067 2.46111 19.5895 2.43396 19.3814 2.40682C18.7209 2.30729 18.2866 1.80058 18.359 1.2034C18.4404 0.560975 18.9924 0.153803 19.68 0.253334C22.666 0.678602 25.3804 1.77344 27.7782 3.60119C31.3251 6.31566 33.5962 9.86257 34.3653 14.26C35.433 20.3947 33.6867 25.7061 29.2169 30.0402C26.3667 32.8089 22.8831 34.3019 18.9381 34.7C18.4133 34.7543 17.8794 34.7091 17.3546 34.7091Z" fill="#357D3D"/>
<path d="M3.30259 10.5231C3.42022 10.5231 3.53784 10.5231 3.65547 10.5231C5.01271 10.5231 6.3609 10.514 7.71814 10.5321C8.21579 10.5321 8.61391 10.8669 8.73154 11.3284C8.84917 11.7808 8.6863 12.2603 8.27913 12.5046C8.08006 12.6132 7.83576 12.6947 7.60956 12.6947C5.46512 12.7127 3.32069 12.7127 1.17625 12.6947C0.226186 12.6856 -0.244323 11.8713 0.180944 11.0207C0.87766 9.64539 1.96345 8.62294 3.13067 7.66383C3.93597 7.0033 4.73221 6.35183 5.51941 5.70036C6.08945 5.22985 6.27042 4.60552 6.24327 3.89071C6.21613 3.27542 5.93563 2.80492 5.41083 2.49728C4.72317 2.0901 3.98121 2.02677 3.2302 2.29821C2.4973 2.56966 2.18061 3.10351 2.20775 3.98119C2.2349 4.58742 1.9725 5.01269 1.47484 5.18461C0.82337 5.41081 0.135703 4.9765 0.054269 4.29788C-0.190034 2.17154 1.14911 0.352841 3.28449 0.063297C4.74126 -0.135764 6.1166 0.108538 7.23858 1.18528C8.65915 2.54252 8.85821 5.05793 7.60051 6.60518C7.08476 7.23856 6.43328 7.76336 5.80895 8.2972C5.067 8.93963 4.2979 9.55491 3.53784 10.1792C3.43831 10.2607 3.31164 10.315 3.19401 10.3873C3.2302 10.4235 3.2664 10.4688 3.30259 10.5231Z" fill="#357D3D"/>
<path d="M16.1423 7.53706C17.3005 7.66373 17.7438 7.98042 17.7348 8.66809C17.7257 9.3467 17.2914 9.65434 16.1423 9.76292C16.1423 9.8896 16.1423 10.0163 16.1423 10.143C16.1423 10.6497 16.1513 11.1564 16.1332 11.6631C16.1061 12.224 15.6627 12.6584 15.1108 12.6855C14.5769 12.7127 14.0612 12.3055 14.0069 11.7535C13.9617 11.2287 13.9798 10.6949 13.9798 10.161C13.9798 10.0253 13.9798 9.89865 13.9798 9.73578C13.8169 9.73578 13.6902 9.73578 13.5726 9.73578C12.0072 9.73578 10.4328 9.72673 8.86749 9.73578C8.36079 9.73578 7.95362 9.57291 7.73646 9.1024C7.52835 8.64094 7.65503 8.23377 7.97172 7.85374C10.0438 5.39262 12.0977 2.92245 14.1698 0.461325C14.5136 0.0541539 15.0474 -0.0996663 15.4999 0.0722504C15.9161 0.226071 16.1513 0.624193 16.1513 1.19423C16.1513 3.16675 16.1513 5.13927 16.1513 7.12083C16.1423 7.24751 16.1423 7.38323 16.1423 7.53706ZM11.0481 7.53706C12.0615 7.53706 13.0025 7.53706 13.9436 7.53706C13.9436 6.39698 13.9436 5.27499 13.9436 4.08062C12.9573 5.2569 12.0253 6.37888 11.0481 7.53706Z" fill="#357D3D"/>
<path d="M8.39617 24.9731C7.96185 24.964 7.63612 24.774 7.43706 24.385C7.23799 24.0049 7.27419 23.6249 7.51849 23.263C7.59088 23.1634 7.68136 23.073 7.77184 22.9915C13.0108 17.7526 18.2407 12.5227 23.4796 7.27472C23.7601 6.99422 24.0587 6.79516 24.4659 6.8404C24.9092 6.88564 25.2259 7.11185 25.3888 7.52807C25.5516 7.94429 25.4702 8.33336 25.1626 8.6591C24.6468 9.19295 24.113 9.71775 23.5882 10.2425C18.8198 15.0019 14.0604 19.7613 9.301 24.5207C9.04764 24.774 8.7762 24.9821 8.39617 24.9731Z" fill="#357D3D"/>
<path d="M25.1357 18.196C24.8552 18.196 24.638 18.196 24.4299 18.196C23.2808 18.196 22.1317 18.205 20.9735 18.196C20.3492 18.196 19.8877 17.7436 19.8696 17.1464C19.8515 16.5401 20.313 16.0696 20.9463 16.0334C20.9916 16.0334 21.0368 16.0334 21.0821 16.0334C23.0455 16.0334 25.009 16.0334 26.9725 16.0334C27.4339 16.0334 27.823 16.1782 28.0492 16.6035C28.2754 17.0197 28.2121 17.4269 27.9587 17.816C25.751 21.2633 23.5432 24.7107 21.3354 28.1581C21.073 28.5653 20.7292 28.8005 20.2406 28.7372C19.7882 28.6829 19.4715 28.4295 19.3358 27.9862C19.2091 27.5971 19.3358 27.2623 19.5439 26.9366C21.3083 24.195 23.0636 21.4533 24.819 18.7027C24.9185 18.5489 25.009 18.4131 25.1357 18.196Z" fill="#357D3D"/>
</g>
<defs>
<clipPath id="clip0_262_5235">
<rect width="34.6729" height="34.7272" fill="white"/>
</clipPath>
</defs>
</svg>
