<svg width="35" height="35" viewBox="0 0 35 35" fill="none" xmlns="http://www.w3.org/2000/svg">
<g clip-path="url(#clip0_262_5233)">
<path d="M17.3377 -0.00012207C17.8987 -0.00012207 18.3511 0.45229 18.3511 1.01328V2.2348C18.4778 2.29813 18.5864 2.35242 18.6949 2.40671C19.7264 2.94961 20.2965 3.80014 20.387 4.96737C20.4051 5.22072 20.5046 5.3112 20.7127 5.39263C23.1286 6.3427 25.5445 7.30181 27.9513 8.26998C28.1594 8.35141 28.3404 8.50523 28.458 8.70429C30.4124 11.9345 32.3397 15.1919 34.3122 18.4131C34.656 18.9741 34.7465 19.5079 34.6379 20.1413C34.1765 22.9191 31.453 25.7964 28.6933 26.3755C27.4536 26.6379 26.2502 26.4841 25.1373 25.9231C22.7757 24.7378 21.2465 22.8558 20.586 20.2951C20.5408 20.1141 20.5136 19.9151 20.4955 19.7251C20.4503 19.345 20.5136 19.0102 20.7308 18.6664C22.4681 15.8162 24.1782 12.9479 25.8973 10.0796C25.9697 9.962 26.0331 9.84437 26.1055 9.70865C24.7663 9.1748 23.4543 8.65 22.1333 8.1252C21.3913 7.82661 20.6403 7.54612 19.8984 7.23848C19.7264 7.16609 19.6269 7.20228 19.4821 7.31991C19.2107 7.53707 18.9302 7.74518 18.6226 7.90805C18.4235 8.00758 18.3783 8.11616 18.3783 8.31522C18.3873 11.4188 18.3783 14.5223 18.3783 17.6349C18.3783 21.1366 18.3783 24.6383 18.3783 28.1399C18.3783 28.2757 18.3783 28.4114 18.3783 28.5923C18.514 28.5923 18.6316 28.5923 18.7492 28.5923C19.7626 28.5923 20.7851 28.5833 21.7985 28.6014C21.9161 28.6014 22.088 28.6828 22.1423 28.7824C22.6943 29.8772 23.5629 31.6235 24.2144 32.9355C24.6125 33.7317 24.0244 34.6728 23.1376 34.6728H11.574C10.6782 34.6728 10.0991 33.7317 10.4972 32.9355C11.1397 31.6416 11.9992 29.9134 12.5059 28.8819C12.6055 28.6738 12.7231 28.5923 12.9674 28.5923C14.0713 28.6104 15.1752 28.6014 16.3333 28.6014C16.3333 28.4657 16.3333 28.348 16.3333 28.2304C16.3333 21.6161 16.3333 14.9928 16.3424 8.37856C16.3424 8.13425 16.2791 8.00758 16.0528 7.899C15.7543 7.75423 15.5009 7.50992 15.2204 7.33801C15.1299 7.27467 14.9761 7.22038 14.8856 7.25657C12.8045 8.07091 10.7325 8.89431 8.62424 9.72674C8.71472 9.88056 8.78711 10.0072 8.86854 10.143C10.5244 12.9117 12.1712 15.6895 13.8632 18.4312C14.207 19.0012 14.2884 19.535 14.1799 20.1594C13.7094 22.9462 10.9949 25.8055 8.22611 26.3846C6.81459 26.6832 5.47545 26.4208 4.24489 25.7059C2.13664 24.4844 0.734165 22.7019 0.127933 20.3222C0.0826913 20.1413 0.0555465 19.9422 0.0284018 19.7522C-0.0168395 19.3631 0.0464983 19.0193 0.263656 18.6664C2.25427 15.3367 4.23584 12.016 6.24455 8.70429C6.34408 8.53238 6.57933 8.33331 6.7603 8.26093C9.17618 7.28372 11.5921 6.33365 14.0079 5.38358C14.2251 5.2931 14.2975 5.20262 14.3065 4.93117C14.3427 3.83633 14.9852 2.83198 15.9986 2.41576C16.2519 2.30718 16.3333 2.2167 16.3243 1.98144C16.3152 1.66476 16.3152 1.34807 16.3152 1.02233C16.3333 0.45229 16.7858 -0.00012207 17.3377 -0.00012207ZM2.82431 18.3226C5.7107 18.3226 8.53375 18.3226 11.402 18.3226C9.97243 15.9338 8.55185 13.5813 7.11318 11.1745C5.67451 13.5813 4.26298 15.9338 2.82431 18.3226ZM23.2914 18.3226C26.1778 18.3226 29.0009 18.3226 31.8692 18.3226C30.4396 15.9338 29.019 13.5813 27.5803 11.1745C26.1326 13.5813 24.7211 15.9338 23.2914 18.3226ZM2.22713 20.3946C2.78812 21.7881 3.63865 22.8919 4.85112 23.7063C5.51164 24.1497 6.22645 24.4211 7.03175 24.4392C7.91847 24.4573 8.71472 24.1587 9.43858 23.661C10.6239 22.8467 11.4563 21.7519 11.9902 20.3946C8.73282 20.3946 5.51164 20.3946 2.22713 20.3946ZM22.7305 20.3946C22.7395 20.4399 22.7395 20.4761 22.7486 20.5032C22.7847 20.6027 22.8119 20.6932 22.8571 20.7837C23.3729 21.8876 24.1058 22.8196 25.083 23.5434C26.6483 24.7016 28.3132 24.7468 29.9148 23.6429C31.0187 22.8829 31.8149 21.8604 32.3487 20.6389C32.3849 20.5665 32.394 20.4761 32.4211 20.3946C29.1819 20.3946 25.9607 20.3946 22.7305 20.3946ZM12.9041 32.6279C15.89 32.6279 18.8126 32.6279 21.7985 32.6279C21.4637 31.9583 21.1561 31.334 20.8303 30.7006C20.8032 30.6463 20.6856 30.6101 20.6041 30.6101C18.4416 30.601 16.27 30.601 14.1075 30.6101C14.026 30.6101 13.9084 30.6463 13.8813 30.7006C13.5465 31.334 13.2388 31.9583 12.9041 32.6279ZM17.3558 4.11683C16.8039 4.10778 16.3424 4.56019 16.3333 5.11214C16.3243 5.65503 16.7767 6.13459 17.3196 6.14364C17.8806 6.16173 18.3602 5.69123 18.3602 5.13023C18.3692 4.58734 17.9077 4.12588 17.3558 4.11683Z" fill="#357D3D"/>
</g>
<defs>
<clipPath id="clip0_262_5233">
<rect width="34.6729" height="34.6548" fill="white"/>
</clipPath>
</defs>
</svg>
