<svg width="31" height="40" viewBox="0 0 31 40" fill="none" xmlns="http://www.w3.org/2000/svg">
<g clip-path="url(#clip0_262_5222)">
<path d="M30.3733 22.054C30.3733 20.4699 30.3836 18.8344 30.3836 17.2194V16.8594V16.8285V16.2936C30.3836 13.4237 30.3939 7.44735 30.3836 5.33864C30.3733 2.09842 28.2749 0.0102864 25.0449 0C22.7716 0 20.5086 0 18.2354 0H15.2729H10.5926C8.92617 0 7.29063 0 5.6551 0C2.28116 0 0.182739 2.08814 0.182739 5.45179C0.182739 6.29527 0.182739 21.4883 0.182739 26.7446V29.5939C0.182739 31.034 0.182739 33.1942 0.182739 33.8525C0.182739 37.1133 2.29145 39.2117 5.56252 39.2117C7.47579 39.2117 9.41992 39.2117 11.3023 39.2014C15.7666 39.1911 20.3749 39.1809 24.9112 39.2426C24.9421 39.2426 24.9626 39.2426 24.9935 39.2426C26.5056 39.2426 27.8943 38.6871 28.892 37.6893C29.8898 36.6915 30.4247 35.3029 30.4041 33.7702C30.3527 29.8614 30.363 25.8908 30.3733 22.054ZM27.9868 17.0137V17.0445V17.0857C27.9868 19.8733 27.9868 22.6609 27.9868 25.4588C27.9868 28.2464 27.9868 31.034 27.9868 33.8319C27.9868 35.7761 26.9685 36.815 25.0347 36.815C18.5439 36.815 12.0532 36.815 5.56252 36.815C3.62868 36.815 2.60004 35.7863 2.60004 33.8422C2.60004 24.3479 2.60004 14.8638 2.60004 5.36949C2.60004 3.46651 3.63897 2.4173 5.53166 2.4173C8.86445 2.4173 12.187 2.4173 15.5197 2.4173C18.6982 2.4173 21.887 2.4173 25.0655 2.4173C26.9479 2.4173 27.9868 3.44594 27.9971 5.30778C27.9971 6.67587 27.9971 9.74121 27.9971 12.4362C27.9868 14.3187 27.9868 16.0673 27.9868 17.0137Z" fill="#357D3D"/>
<path d="M26.0732 7.29269C26.0732 5.58515 25.2194 4.75195 23.481 4.75195C21.5781 4.75195 19.6854 4.75195 17.7824 4.75195H15.3137H12.8243C10.8802 4.75195 8.92581 4.75195 6.98168 4.75195C5.39758 4.75195 4.48209 5.63658 4.4718 7.17954C4.4718 7.82758 4.4718 8.47563 4.4718 9.12367V9.86429C4.4718 11.6953 5.31529 12.5182 7.19769 12.5182C12.3615 12.5182 17.5355 12.5182 22.6993 12.5182C22.8021 12.5182 22.9153 12.5182 23.0182 12.5182C23.1313 12.5182 23.2342 12.5182 23.3473 12.5182C23.5222 12.5182 23.6971 12.5182 23.8719 12.5079C25.1886 12.4256 26.0526 11.541 26.0629 10.2552C26.0732 9.51455 26.0732 8.76364 26.0629 8.0436C26.0732 7.78644 26.0732 7.53956 26.0732 7.29269ZM6.73481 7.22069C6.73481 7.0561 6.76567 7.01496 6.76567 7.01496C6.76567 7.01496 6.80681 6.97381 7.01254 6.97381C12.4643 6.9841 18.0293 6.9841 23.5633 6.97381C23.7382 6.97381 23.7794 7.00467 23.7794 7.00467C23.7794 7.00467 23.8102 7.03553 23.7999 7.18983C23.7794 8.31104 23.7794 9.1751 23.7999 9.99801C23.8102 10.2037 23.7691 10.2449 23.7691 10.2552C23.7691 10.2552 23.7176 10.3066 23.481 10.3066C22.1335 10.2963 20.7757 10.2963 19.4282 10.2963C18.7287 10.2963 18.0395 10.2963 17.3504 10.2963C16.6509 10.2963 15.9514 10.2963 15.2622 10.2963H13.1741C11.1682 10.2963 9.1624 10.2963 7.15655 10.2963C7.0434 10.2963 6.84796 10.2963 6.75538 10.2757C6.74509 10.1935 6.74509 10.0186 6.74509 9.91572C6.74509 9.6277 6.74509 9.33968 6.74509 9.06195C6.74509 8.44477 6.75538 7.82758 6.73481 7.22069Z" fill="#357D3D"/>
<path d="M26.0729 16.0158C26.0729 14.4626 25.2089 13.6088 23.6351 13.5985C23.1825 13.5985 22.5756 13.5985 21.9687 13.5985C20.4668 13.6088 19.5719 14.5037 19.5616 15.9952C19.5616 16.9827 19.5616 17.9908 19.5616 18.9577C19.5616 19.3795 19.5616 19.8115 19.5616 20.2332V23.4734C19.5616 26.2199 19.5616 28.9664 19.5616 31.7128C19.5616 33.2558 20.4463 34.1507 21.9892 34.161C22.267 34.161 22.5447 34.161 22.8327 34.161C23.1104 34.161 23.3779 34.161 23.6556 34.161C25.2192 34.1507 26.0729 33.2867 26.0729 31.7231C26.0729 29.8819 26.0729 28.0303 26.0729 26.1891V23.8952V21.5499C26.0832 19.7086 26.0832 17.8674 26.0729 16.0158ZM23.8511 21.9202C23.8511 22.5991 23.8511 23.278 23.8511 23.9466C23.8511 24.6049 23.8511 25.2633 23.8511 25.9216C23.8511 27.7834 23.8511 29.7173 23.8614 31.6203C23.8614 31.8774 23.8202 31.9289 23.8099 31.9289C23.8099 31.9289 23.7585 31.97 23.5528 31.9494C23.059 31.9083 22.5756 31.9083 22.1127 31.9494C21.8967 31.97 21.8349 31.9289 21.8349 31.9186C21.8247 31.9083 21.7732 31.8466 21.7938 31.5894C21.8144 31.1779 21.8144 30.7665 21.8041 30.3756C21.8041 30.2007 21.8041 30.0362 21.8041 29.8613V26.4668V16.2935C21.8041 16.1187 21.8041 15.9335 21.8144 15.8512C21.8967 15.8409 22.0818 15.8409 22.267 15.8409C22.3904 15.8409 22.5138 15.8409 22.6476 15.8512C22.9356 15.8615 23.2339 15.8615 23.5322 15.8409C23.7585 15.8204 23.8202 15.8615 23.8202 15.8718C23.8305 15.8821 23.8716 15.9335 23.8716 16.1907C23.8408 18.0834 23.8511 20.0378 23.8511 21.9202Z" fill="#357D3D"/>
<path d="M4.48251 15.8718C4.47222 16.633 4.47222 17.2708 4.48251 17.8674C4.51337 19.1326 5.40828 20.0481 6.66322 20.0892C7.02325 20.0995 7.39355 20.1098 7.75358 20.1098C8.1136 20.1098 8.47363 20.0995 8.83365 20.0892C10.1092 20.0378 10.9835 19.1429 10.9938 17.8468C11.0041 17.1782 11.0041 16.4581 10.9938 15.7484C10.9629 14.5654 10.0886 13.6705 8.90565 13.6088C8.63821 13.5985 8.37076 13.5985 8.1136 13.5985C8.10332 13.5985 8.08274 13.5985 8.07246 13.5985H7.76386C7.661 13.5985 7.54785 13.5985 7.44499 13.5985C7.21869 13.5985 6.97181 13.5985 6.73523 13.5985C5.41857 13.6294 4.51337 14.5449 4.48251 15.8718ZM6.71465 16.3553C6.71465 16.1495 6.70437 15.9232 6.72494 15.8409C6.80723 15.8204 7.00267 15.8307 7.19811 15.8307C7.34212 15.8307 7.50671 15.8307 7.70215 15.8307H7.75358C8.22675 15.8307 8.62792 15.8307 8.71021 15.9129C8.7925 15.9952 8.7925 16.4067 8.7925 16.8902C8.7925 17.3222 8.7925 17.7336 8.7205 17.8056C8.64849 17.8776 8.21647 17.8776 7.80501 17.8776C7.60957 17.8776 7.4347 17.8776 7.29069 17.8776C7.06439 17.8776 6.8278 17.8879 6.73523 17.8674C6.71465 17.7851 6.72494 17.5691 6.72494 17.353C6.72494 17.1987 6.73523 17.0136 6.73523 16.7976C6.71465 16.6227 6.71465 16.4787 6.71465 16.3553Z" fill="#357D3D"/>
<path d="M11.0039 30.9208C11.0039 30.8179 11.0039 30.7151 11.0039 30.6225C11.0039 30.3859 11.0039 30.139 11.0039 29.9024C10.9834 28.6475 10.0987 27.732 8.87466 27.6909C8.05175 27.66 7.31113 27.66 6.60136 27.6909C5.42872 27.7423 4.54409 28.6372 4.50294 29.8201C4.47208 30.5608 4.47208 31.3117 4.50294 32.042C4.54409 33.2249 5.42872 34.1199 6.61165 34.1713C7.01282 34.1919 7.4037 34.1919 7.7843 34.1919C8.18547 34.1919 8.56606 34.1816 8.94666 34.161C10.109 34.0993 10.9834 33.1941 11.0142 32.0009C11.0245 31.754 11.0142 31.5071 11.0142 31.2705C11.0039 31.1574 11.0039 31.0442 11.0039 30.9208ZM6.71451 30.4373C6.71451 30.2213 6.70423 30.0053 6.7248 29.923C6.80709 29.9024 7.03339 29.9024 7.23912 29.9024C7.36256 29.9024 7.51685 29.9024 7.68144 29.9024H7.73287C8.20604 29.9024 8.6175 29.9024 8.6895 29.9847C8.77179 30.067 8.77179 30.4785 8.77179 30.9517C8.77179 31.394 8.77179 31.8054 8.69979 31.8774C8.62778 31.9494 8.20604 31.9494 7.79459 31.9391C7.57857 31.9391 7.4037 31.9391 7.24941 31.9391C7.03339 31.9391 6.81738 31.9494 6.7248 31.9289C6.70423 31.8363 6.71451 31.6203 6.71451 31.4043C6.71451 31.25 6.7248 31.0751 6.7248 30.8694C6.71451 30.7048 6.71451 30.5608 6.71451 30.4373Z" fill="#357D3D"/>
<path d="M16.3318 13.6089C16.0849 13.5987 15.838 13.6089 15.6014 13.6089C15.4986 13.6089 15.406 13.6089 15.3031 13.6089C15.1797 13.6089 15.0665 13.6089 14.9431 13.6089C14.6859 13.6089 14.4288 13.6089 14.1716 13.6192C12.9681 13.6707 12.0732 14.5759 12.0423 15.7691C12.032 16.376 12.0218 17.0446 12.0423 17.8675C12.0629 19.1533 12.9372 20.0482 14.2128 20.0894C14.5831 20.0997 14.9431 20.1099 15.3031 20.1099C15.6734 20.1099 16.0335 20.0997 16.3832 20.0894C17.6176 20.0379 18.4816 19.1842 18.5433 17.9704C18.5845 17.24 18.5845 16.4891 18.5433 15.7485C18.4816 14.4936 17.597 13.6398 16.3318 13.6089ZM16.3318 17.312C16.3318 17.5383 16.342 17.7646 16.3215 17.8572C16.2392 17.8778 16.0129 17.8778 15.7866 17.8675C15.6734 17.8675 15.55 17.8675 15.406 17.8675C15.3648 17.8675 15.3237 17.8675 15.2928 17.8675C14.8505 17.8675 14.4288 17.8778 14.3568 17.7955C14.2848 17.7235 14.2848 17.312 14.2848 16.8389C14.2848 16.376 14.2848 15.9748 14.3568 15.9028C14.4288 15.8308 14.8402 15.8308 15.3031 15.8308C15.5191 15.8308 15.7146 15.8308 15.8586 15.8308C16.0437 15.8308 16.2392 15.8308 16.3215 15.8411C16.342 15.9337 16.342 16.1703 16.3318 16.4068C16.3318 16.5406 16.3318 16.6846 16.3318 16.8594C16.3215 17.024 16.3318 17.1783 16.3318 17.312Z" fill="#357D3D"/>
<path d="M16.3528 27.6807C15.5814 27.6601 14.8716 27.6601 14.1927 27.6807C12.9583 27.7219 12.0737 28.6271 12.0428 29.8717C12.0326 30.1083 12.0428 30.3449 12.0428 30.5712C12.0428 30.6741 12.0428 30.7872 12.0428 30.8901C12.0428 30.9929 12.0428 31.0958 12.0428 31.1987C12.0428 31.4352 12.0428 31.6718 12.0428 31.9084C12.0634 33.2354 12.9789 34.1406 14.3058 34.1611C14.6556 34.1714 14.995 34.1714 15.3242 34.1714C15.6636 34.1714 15.9825 34.1714 16.3014 34.1611C17.5872 34.1406 18.4924 33.2662 18.5438 32.001C18.5747 31.2912 18.5747 30.5609 18.5438 29.8306C18.4924 28.6065 17.5872 27.7219 16.3528 27.6807ZM16.3323 31.3735C16.3323 31.6101 16.3425 31.8467 16.322 31.9393C16.2397 31.9598 16.034 31.9599 15.8282 31.9496C15.7357 31.9496 15.6328 31.9496 15.5094 31.9496C15.4373 31.9496 15.3653 31.9496 15.2933 31.9496C14.8305 31.9496 14.4293 31.9496 14.347 31.8776C14.275 31.8056 14.275 31.3941 14.275 30.9312C14.275 30.4683 14.275 30.0569 14.347 29.9849C14.4293 29.9026 14.851 29.9129 15.2933 29.9129C15.4888 29.9129 15.6636 29.9129 15.8077 29.9129C16.0134 29.9129 16.2397 29.9026 16.322 29.9231C16.3425 30.0157 16.3426 30.2523 16.3323 30.4889C16.3323 30.6226 16.3323 30.7666 16.3323 30.9312C16.322 31.0958 16.3323 31.2398 16.3323 31.3735Z" fill="#357D3D"/>
<path d="M8.88528 20.6657C8.13437 20.6349 7.37318 20.6349 6.61199 20.6657C5.42905 20.7069 4.53414 21.5915 4.49299 22.7641C4.46213 23.5871 4.46213 24.3277 4.49299 25.0374C4.54442 26.1998 5.44963 27.0741 6.64285 27.1153C6.77657 27.1153 6.92058 27.1256 7.0543 27.1256C7.16745 27.1256 7.2806 27.1256 7.39375 27.1256C7.5069 27.1256 7.60977 27.1256 7.72292 27.1256C7.83607 27.1256 7.95951 27.1256 8.07266 27.1256C8.32981 27.1256 8.59726 27.1256 8.85442 27.1256C10.0682 27.0844 10.9631 26.1895 10.994 24.986C11.0146 24.3071 11.0146 23.6076 10.994 22.8362C10.9734 21.5915 10.0991 20.7069 8.88528 20.6657ZM6.71485 23.3402C6.71485 23.1653 6.70457 22.9802 6.72514 22.8979C6.81772 22.8773 7.02344 22.8876 7.21889 22.8876C7.34232 22.8876 7.48633 22.8876 7.64063 22.8876H7.69206C8.18581 22.8876 8.60755 22.8876 8.68984 22.9699C8.77213 23.0522 8.77213 23.4636 8.77213 23.9471C8.77213 24.3688 8.77213 24.77 8.70013 24.8317C8.62812 24.9037 8.22695 24.9037 7.79492 24.9037C7.30118 24.9037 6.86915 24.9037 6.78686 24.8214C6.70457 24.7288 6.70457 24.2968 6.70457 23.8031C6.71485 23.6179 6.71485 23.4636 6.71485 23.3402Z" fill="#357D3D"/>
<path d="M16.3838 20.6657C15.5506 20.6451 14.8099 20.6451 14.1105 20.676C12.9481 20.7274 12.0738 21.6018 12.0429 22.7641C12.0223 23.515 12.0223 24.2762 12.0429 25.0271C12.0738 26.1998 12.9687 27.0844 14.1619 27.1256C14.4293 27.1358 14.6865 27.1358 14.9437 27.1256C14.9539 27.1256 14.9745 27.1256 14.9848 27.1256H15.2934C15.3963 27.1256 15.5094 27.1256 15.6123 27.1256C15.7151 27.1256 15.8283 27.1256 15.9312 27.1256C16.0546 27.1256 16.1883 27.1256 16.322 27.1256C17.5873 27.0947 18.4822 26.2512 18.5439 25.0066C18.585 24.2865 18.585 23.5356 18.5439 22.7847C18.4822 21.5503 17.6181 20.6966 16.3838 20.6657ZM16.3323 23.8751C16.3323 24.3379 16.3323 24.7391 16.2603 24.8111C16.1883 24.8831 15.7769 24.8831 15.3037 24.8831C14.8305 24.8831 14.4293 24.8831 14.347 24.8008C14.2648 24.7185 14.2648 24.3071 14.2648 23.8236C14.2648 23.4019 14.2648 23.0007 14.3368 22.9287C14.4088 22.8567 14.8099 22.8567 15.2317 22.8567C15.7357 22.8567 16.1677 22.8567 16.25 22.939C16.3323 23.0316 16.3323 23.4225 16.3323 23.8751Z" fill="#357D3D"/>
</g>
<defs>
<clipPath id="clip0_262_5222">
<rect width="30.2317" height="39.2323" fill="white" transform="translate(0.183594)"/>
</clipPath>
</defs>
</svg>
