<svg width="33" height="36" viewBox="0 0 33 36" fill="none" xmlns="http://www.w3.org/2000/svg">
<g clip-path="url(#clip0_262_5242)">
<path d="M32.8755 4.6689C32.8755 2.37969 31.274 0.488605 28.9848 0.0633377C28.9757 0.0633377 28.9667 0.0542895 28.9667 0.0542895C28.9486 0.0452412 28.9214 0.036193 28.9034 0.0271447L28.8219 0H8.51765L8.44526 0.0271447C8.27335 0.0904825 8.10143 0.144772 7.91142 0.20811C7.4952 0.343833 7.06088 0.488605 6.66276 0.72386C5.27838 1.56535 4.50928 2.89544 4.45499 4.57841C4.44594 4.90415 4.44594 5.22084 4.44594 5.55562C4.44594 5.58277 4.44594 5.60087 4.44594 5.62801C4.23783 5.62801 4.03877 5.62801 3.83066 5.62801C2.24721 5.64611 1.0076 6.70475 0.754252 8.2701C0.627577 9.08444 0.862831 9.93498 1.40573 10.6136C1.94862 11.2832 2.72677 11.6994 3.54111 11.7356C3.8397 11.7537 4.1383 11.7446 4.41879 11.7446V14.7125C4.21068 14.7125 4.00257 14.7125 3.78542 14.7125C2.21102 14.7486 1.01665 15.7892 0.763301 17.3636C0.636625 18.1779 0.87188 19.0285 1.41477 19.7071C1.95767 20.3767 2.73582 20.7929 3.55016 20.8381C3.84875 20.8562 4.14735 20.8472 4.43689 20.8472V23.815C4.22878 23.815 4.02067 23.815 3.81256 23.815C2.25626 23.8331 1.03475 24.8827 0.781397 26.4209C0.645673 27.2624 0.880928 28.131 1.43287 28.8096C1.98481 29.4882 2.79011 29.8954 3.6316 29.9316C3.90304 29.9407 4.17449 29.9407 4.46403 29.9407V29.9497C4.46403 30.2302 4.46403 30.5016 4.46403 30.7731C4.47308 33.189 6.00224 35.0348 8.38193 35.4963C8.40002 35.5053 8.41812 35.5144 8.44526 35.5234L8.5086 35.5596H28.8038L28.8581 35.5415C28.9395 35.5234 29.021 35.4963 29.1024 35.4782C29.2834 35.4329 29.4734 35.3877 29.6634 35.3244C31.6178 34.6729 32.8846 32.9266 32.8846 30.8907C32.8846 21.381 32.8846 12.8033 32.8755 4.6689ZM9.2958 33.3337C7.68521 33.3337 6.68085 32.3294 6.67181 30.7007C6.67181 30.4474 6.67181 30.194 6.67181 29.9316C6.90706 29.9316 7.13327 29.9316 7.35947 29.9316C8.92482 29.9045 10.2459 28.692 10.3635 27.1809C10.4992 25.5251 9.40438 24.0955 7.82998 23.8602C7.46805 23.8059 7.10612 23.815 6.75324 23.8331C6.73514 23.8331 6.71705 23.8331 6.69895 23.8331V20.8472C6.92516 20.8472 7.16041 20.8472 7.38662 20.8472C8.67147 20.811 9.7844 20.0057 10.2006 18.8023C10.6259 17.6079 10.273 16.2959 9.30485 15.4635C8.7529 14.9929 8.11048 14.7396 7.40471 14.7305C7.16946 14.7305 6.93421 14.7305 6.6899 14.7305V11.7627C6.88896 11.7627 7.08803 11.7627 7.29614 11.7627C8.90672 11.7446 10.2187 10.5684 10.3454 9.03015C10.4811 7.34718 9.44057 5.97184 7.80284 5.6823C7.57663 5.64611 7.35043 5.64611 7.14232 5.64611C7.06993 5.64611 7.00659 5.64611 6.93421 5.64611C6.85277 5.64611 6.78039 5.64611 6.708 5.64611C6.708 5.56467 6.69895 5.49229 6.69895 5.41085C6.68085 4.97654 6.66276 4.57841 6.7261 4.19839C6.92516 3.03116 7.90237 2.25301 9.15103 2.24397C11.3678 2.23492 13.6299 2.24397 15.8105 2.24397C17.6292 2.24397 19.4479 2.24397 21.2666 2.24397C23.5106 2.24397 25.836 2.24397 28.1162 2.24397C29.4101 2.24397 30.3873 3.04926 30.6044 4.29792C30.6316 4.46983 30.6316 4.65985 30.6316 4.85891V4.86796C30.6316 13.4819 30.6316 22.1049 30.6316 30.7188C30.6316 32.3384 29.6272 33.3428 27.9985 33.3428C21.7824 33.3337 15.5391 33.3337 9.2958 33.3337ZM7.24185 7.85388C7.79379 7.86293 8.16477 8.19771 8.16477 8.69537C8.16477 9.17492 7.79379 9.53685 7.27804 9.5459C6.15606 9.564 4.99788 9.564 3.8397 9.5459C3.30586 9.53685 2.94393 9.18397 2.95298 8.67727C2.96202 8.18866 3.333 7.86293 3.89399 7.86293C4.1021 7.86293 4.31926 7.86293 4.52737 7.86293C4.69929 7.86293 4.87121 7.86293 5.04312 7.86293C5.21504 7.86293 5.38696 7.86293 5.55887 7.86293C5.73984 7.86293 5.91175 7.86293 6.09272 7.86293C6.4637 7.84483 6.86182 7.84483 7.24185 7.85388ZM8.16477 17.7165C8.20096 18.0784 7.95666 18.4584 7.60378 18.5761C7.459 18.6213 7.28709 18.6303 7.15136 18.6303C6.77134 18.6394 6.39131 18.6394 6.02033 18.6303C6.00224 18.6303 5.98414 18.6303 5.97509 18.6303V18.6122H5.57697C5.37791 18.6122 5.18789 18.6122 4.98883 18.6213C4.55452 18.6303 4.1021 18.6303 3.67684 18.6032C3.34205 18.5851 3.04346 18.2865 2.98012 17.9246C2.91678 17.5536 3.1068 17.1917 3.43253 17.0288C3.55921 16.9655 3.62255 16.9564 3.64064 16.9564C3.88495 16.9564 4.12925 16.9564 4.37355 16.9474C5.396 16.9383 6.45465 16.9293 7.4952 16.9564C7.89332 16.9745 8.12857 17.3636 8.16477 17.7165ZM8.16477 26.8823C8.15572 27.371 7.79379 27.7057 7.25994 27.7148C6.87087 27.7238 6.48179 27.7148 6.09272 27.7148C5.9208 27.7148 5.73984 27.7148 5.56792 27.7148C5.38696 27.7148 5.20599 27.7148 5.03407 27.7148C4.645 27.7148 4.24688 27.7148 3.84875 27.7148C3.333 27.7057 2.97107 27.38 2.95298 26.9095C2.94393 26.6652 3.02536 26.439 3.17918 26.2852C3.333 26.1223 3.54111 26.0409 3.78542 26.0318C4.96169 26.0047 6.15606 26.0047 7.32328 26.0318C7.82093 26.0409 8.18286 26.4028 8.16477 26.8823Z" fill="#357D3D"/>
<path d="M14.9051 11.1741C15.1856 11.4546 15.4842 11.5994 15.7828 11.5994C16.0814 11.5994 16.3709 11.4636 16.6514 11.1832C17.8096 10.034 18.9496 8.8849 20.0535 7.78101C20.5602 7.27431 20.5964 6.58664 20.135 6.13423C19.6735 5.67277 18.9949 5.70896 18.4791 6.21566C17.9905 6.70427 17.4929 7.20192 17.0043 7.68148L16.8414 7.84435C16.5428 8.14294 16.2442 8.44153 15.9366 8.75822L15.7647 8.93014C15.7013 8.85775 15.6289 8.79441 15.5656 8.72203C15.1946 8.342 14.8417 7.98912 14.4889 7.62719C14.0003 7.13859 13.3126 7.11144 12.8602 7.5548C12.643 7.77196 12.5254 8.03436 12.5254 8.31486C12.5254 8.63155 12.6611 8.93919 12.9326 9.21063C13.6293 9.90735 14.2717 10.5498 14.9051 11.1741Z" fill="#357D3D"/>
<path d="M14.9879 20.3407C15.2322 20.576 15.5126 20.6936 15.7931 20.6936C16.0646 20.6936 16.336 20.585 16.5622 20.3588C17.7023 19.2369 18.9238 18.0244 20.1363 16.7667C20.3987 16.4952 20.4711 16.0247 20.4078 15.7261C20.3263 15.3461 20.0639 15.0566 19.702 14.9389C19.3039 14.8213 18.8695 14.9299 18.5529 15.2375C18.1185 15.6538 17.6933 16.0881 17.2771 16.5043C17.1232 16.6581 16.9694 16.8119 16.8156 16.9657C16.517 17.2643 16.2275 17.5629 15.9108 17.8706L15.775 18.0063C15.7027 17.9339 15.6393 17.8615 15.5669 17.7891C15.1869 17.391 14.825 17.02 14.445 16.6581C13.9835 16.2057 13.3139 16.1966 12.8706 16.631C12.4181 17.0743 12.4181 17.7439 12.8706 18.2054C13.5492 18.9202 14.264 19.635 14.9879 20.3407Z" fill="#357D3D"/>
<path d="M19.3942 23.9954C19.0595 24.0316 18.7066 24.1854 18.4804 24.4116C17.8108 25.054 17.1503 25.7236 16.5079 26.366C16.2726 26.6013 16.0283 26.8456 15.793 27.0809C15.6573 26.9451 15.5125 26.8004 15.3768 26.6646C15.0692 26.357 14.7434 26.0313 14.4177 25.7236C13.9472 25.2803 13.2867 25.2803 12.8433 25.7327C12.409 26.167 12.409 26.8366 12.8433 27.2799C13.5581 28.0128 14.291 28.7457 15.0058 29.4515C15.2411 29.6777 15.5125 29.7863 15.784 29.7863C16.0554 29.7863 16.3269 29.6777 16.544 29.4605C17.7656 28.2571 18.9961 27.0175 20.1453 25.8593C20.4529 25.5426 20.5434 25.1264 20.3896 24.7102C20.2176 24.2307 19.8286 23.9592 19.3942 23.9954Z" fill="#357D3D"/>
<path d="M27.2835 7.5918C26.8311 7.5918 26.3787 7.5918 25.9353 7.5918C25.7453 7.5918 25.5553 7.5918 25.3653 7.5918C25.1662 7.5918 24.9762 7.5918 24.7862 7.5918C24.3519 7.5918 23.8904 7.5918 23.447 7.5918C22.7594 7.60085 22.2889 8.02611 22.2798 8.66854C22.2708 8.97618 22.3794 9.26572 22.5784 9.46478C22.7865 9.67289 23.0761 9.79052 23.4109 9.79957C24.0442 9.80862 24.6957 9.80862 25.3562 9.80862C25.9987 9.80862 26.6501 9.80862 27.3106 9.79957C27.6454 9.79957 27.944 9.67289 28.1521 9.45574C28.3512 9.24763 28.4598 8.96713 28.4507 8.67759C28.4417 8.05326 27.9531 7.60085 27.2835 7.5918Z" fill="#357D3D"/>
<path d="M27.2749 25.7607C25.9629 25.7516 24.6781 25.7516 23.4475 25.7607C23.0946 25.7607 22.796 25.8783 22.5789 26.1045C22.3798 26.3126 22.2803 26.5931 22.2803 26.9008C22.2984 27.5341 22.7689 27.9685 23.4475 27.9685C23.7008 27.9685 23.9542 27.9685 24.2166 27.9685C24.4066 27.9685 24.5876 27.9685 24.7776 27.9685C24.9676 27.9685 25.1667 27.9685 25.3567 27.9685H25.9267C26.3701 27.9685 26.8134 27.9685 27.2568 27.9685C27.9535 27.9594 28.4512 27.5161 28.4602 26.8917C28.4693 26.5931 28.3607 26.3217 28.1616 26.1136C27.9445 25.8874 27.6278 25.7607 27.2749 25.7607Z" fill="#357D3D"/>
<path d="M27.2655 16.6759C25.9987 16.6759 24.7229 16.6759 23.4743 16.6759C22.7685 16.6759 22.2889 17.1193 22.2889 17.7798C22.2889 18.4313 22.7685 18.8746 23.4743 18.8746C23.9176 18.8746 24.37 18.8746 24.8044 18.8746C25.1844 18.8746 25.5644 18.8746 25.9444 18.8746C26.1344 18.8746 26.3245 18.8746 26.5145 18.8746C26.7678 18.8746 27.0212 18.8746 27.2745 18.8746C27.9712 18.8656 28.4689 18.4041 28.4689 17.7707C28.4598 17.1464 27.9531 16.685 27.2655 16.6759Z" fill="#357D3D"/>
</g>
<defs>
<clipPath id="clip0_262_5242">
<rect width="32.1575" height="35.5596" fill="white" transform="translate(0.727539)"/>
</clipPath>
</defs>
</svg>
