<svg width="35" height="35" viewBox="0 0 35 35" fill="none" xmlns="http://www.w3.org/2000/svg">
<g clip-path="url(#clip0_262_5218)">
<path d="M24.3398 23.6158C25.0636 22.9733 25.7423 22.3852 26.4118 21.788C27.38 20.9284 28.3482 20.0598 29.3344 19.2093C30.8545 17.9063 33.2071 18.2863 34.1662 19.9784C34.8719 21.218 34.6186 22.6928 33.5057 23.6972C32.1213 24.9459 30.7369 26.1855 29.3525 27.4341C28.3572 28.3299 27.3438 29.2166 26.3575 30.1305C25.0546 31.3249 23.5345 31.913 21.7701 31.913C18.8475 31.913 15.9249 31.913 13.0023 31.922C12.8033 31.922 12.5771 31.9944 12.4142 32.103C11.3103 32.8631 10.2245 33.6503 9.10254 34.4013C8.84919 34.5732 8.50535 34.6818 8.19771 34.6908C5.86326 34.718 3.52882 34.6999 1.18532 34.6999C0.398123 34.6999 0 34.3017 0 33.5145C0 31.5782 0.00904825 29.66 0 27.7418C0 27.2893 0.15382 26.9455 0.51575 26.665C2.49732 25.1359 4.46983 23.5886 6.4514 22.0504C7.89912 20.9284 9.5459 20.3674 11.3827 20.3674C14.5586 20.3765 17.7255 20.4217 20.9015 20.3493C22.8197 20.3131 24.3217 21.607 24.3398 23.6158ZM2.03586 32.6278C2.11729 32.6369 2.14443 32.6459 2.18063 32.6459C4.08076 32.6459 5.97184 32.6459 7.87198 32.6369C8.0077 32.6369 8.15247 32.5735 8.2701 32.4921C9.37399 31.723 10.4779 30.9629 11.5637 30.1757C11.8804 29.9495 12.2151 29.85 12.6042 29.85C15.6173 29.859 18.6303 29.85 21.6434 29.8591C22.9464 29.8681 24.0683 29.4519 25.0275 28.5652C26.3666 27.3346 27.7329 26.1312 29.0811 24.9187C30.1126 23.9867 31.1531 23.0638 32.1756 22.1318C32.6823 21.6704 32.6099 20.9556 32.0398 20.6117C31.5784 20.3312 31.0264 20.4036 30.574 20.8018C28.7915 22.3761 27 23.9505 25.2265 25.543C24.5298 26.1674 23.7336 26.475 22.7925 26.475C20.8834 26.466 18.9742 26.475 17.065 26.475C16.1511 26.475 15.2373 26.4841 14.3234 26.475C13.6267 26.466 13.1652 25.9231 13.2738 25.2716C13.3552 24.7739 13.7805 24.4482 14.3505 24.4482C16.6216 24.4482 18.8927 24.4482 21.1548 24.4482C21.8063 24.4482 22.2768 24.0139 22.2768 23.4257C22.2768 22.8376 21.8244 22.4123 21.1639 22.4123C17.8793 22.4123 14.5948 22.4123 11.3103 22.4123C10.0164 22.4123 8.84014 22.7924 7.80864 23.5796C5.9266 25.0273 4.06266 26.4841 2.19872 27.9408C2.11729 28.0042 2.03586 28.1127 2.03586 28.2032C2.03586 29.6781 2.03586 31.1439 2.03586 32.6278Z" fill="#357D3D"/>
<path d="M20.6755 8.29715C21.3269 8.77671 22.0237 9.22007 22.6208 9.77201C24.2133 11.2559 25.0096 13.1289 25.0729 15.3095C25.082 15.59 25.0729 15.8705 25.0729 16.1601C25.0639 16.8658 24.6567 17.2821 23.96 17.2821C22.1865 17.2821 20.4131 17.2821 18.6396 17.2821C15.9885 17.2821 13.3373 17.2821 10.6772 17.2821C9.88091 17.2821 9.50993 16.893 9.48279 16.1058C9.41945 14.4409 9.71804 12.8756 10.5867 11.4369C11.3558 10.1701 12.3873 9.19293 13.7083 8.50526C13.7717 8.47811 13.8259 8.44192 13.8893 8.40573C13.9074 8.39668 13.9164 8.37858 13.9526 8.33334C12.8216 7.20231 12.3058 5.82698 12.4959 4.22544C12.6406 3.01297 13.1926 1.99052 14.1155 1.19427C15.9794 -0.43441 18.721 -0.38012 20.5397 1.26666C22.268 2.82296 22.9194 6.01699 20.6755 8.29715ZM23.0099 15.2191C23.028 12.5317 20.7026 9.64534 17.2643 9.65439C13.8531 9.66343 11.5277 12.5498 11.5548 15.2191C15.3732 15.2191 19.1916 15.2191 23.0099 15.2191ZM20.0692 4.82262C20.0692 3.27537 18.8206 2.02671 17.2733 2.02671C15.7442 2.02671 14.5046 3.27537 14.4955 4.80453C14.4865 6.36082 15.7261 7.60043 17.2733 7.60948C18.8206 7.61853 20.0692 6.36987 20.0692 4.82262Z" fill="#357D3D"/>
</g>
<defs>
<clipPath id="clip0_262_5218">
<rect width="34.5553" height="34.6819" fill="white"/>
</clipPath>
</defs>
</svg>
