<svg width="20" height="20" viewBox="0 0 20 20" fill="none" xmlns="http://www.w3.org/2000/svg">
<path d="M16.5958 10.858C16.2725 10.4496 16.365 10.268 16.5958 9.90297C16.6 9.8988 19.2692 6.21047 19.5442 4.95964L19.5458 4.9588C19.6825 4.50297 19.5458 4.16797 18.885 4.16797H16.6983C16.1417 4.16797 15.885 4.45547 15.7475 4.77714C15.7475 4.77714 14.6342 7.44214 13.0592 9.16964C12.5508 9.6688 12.3158 9.8288 12.0383 9.8288C11.9017 9.8288 11.6892 9.6688 11.6892 9.21297V4.9588C11.6892 4.41214 11.5333 4.16797 11.0725 4.16797H7.63417C7.285 4.16797 7.0775 4.42297 7.0775 4.66047C7.0775 5.1788 7.865 5.29797 7.94667 6.7563V9.92047C7.94667 10.6138 7.82083 10.7413 7.54167 10.7413C6.79833 10.7413 4.99417 8.06547 3.925 5.00297C3.70917 4.4088 3.49833 4.1688 2.9375 4.1688H0.75C0.125833 4.1688 0 4.4563 0 4.77797C0 5.3463 0.743333 8.17214 3.45667 11.9055C5.265 14.4538 7.81167 15.8346 10.1283 15.8346C11.5208 15.8346 11.6908 15.528 11.6908 15.0005C11.6908 12.5655 11.565 12.3355 12.2625 12.3355C12.5858 12.3355 13.1425 12.4955 14.4425 13.7246C15.9283 15.1821 16.1725 15.8346 17.0042 15.8346H19.1908C19.8142 15.8346 20.13 15.528 19.9483 14.923C19.5325 13.6505 16.7225 11.033 16.5958 10.858Z" fill="white"/>
</svg>
