<svg width="24" height="22" viewBox="0 0 24 22" fill="none" xmlns="http://www.w3.org/2000/svg">
<path fill-rule="evenodd" clip-rule="evenodd" d="M7.5 2.35714C4.60505 2.35714 2.25 4.82767 2.25 7.88588C2.25 8.79231 2.69233 9.87772 3.44683 11.0357C4.18378 12.1667 5.1209 13.2208 5.90291 14.0436L10.6759 19.0654C11.4077 19.8354 12.5923 19.8354 13.3241 19.0654L18.0971 14.0436C18.8648 13.2359 19.8024 12.1813 20.5432 11.0459C21.3026 9.88201 21.75 8.79029 21.75 7.88588C21.75 4.82767 19.3949 2.35714 16.5 2.35714C15.0548 2.35714 13.747 2.97061 12.7958 3.96792C12.5848 4.18916 12.2985 4.31347 12 4.31347C11.7015 4.31347 11.4152 4.18916 11.2042 3.96792C10.253 2.97061 8.94522 2.35714 7.5 2.35714ZM0 7.88588C0 3.5354 3.35332 0 7.5 0C9.18843 0 10.7472 0.587631 12 1.57674C13.2528 0.587632 14.8116 0 16.5 0C20.6467 0 24 3.5354 24 7.88588C24 9.51064 23.2401 11.0896 22.4007 12.3761C21.5427 13.6911 20.49 14.8666 19.6915 15.7068L14.9185 20.7285C13.3072 22.4238 10.6928 22.4238 9.08148 20.7285L4.30851 15.7068C3.49669 14.8526 2.44346 13.6767 1.5885 12.3646C0.751107 11.0794 0 9.50862 0 7.88588Z" fill="#357D3D"/>
</svg>
