<svg width="26" height="26" viewBox="0 0 26 26" fill="none" xmlns="http://www.w3.org/2000/svg">
<g clip-path="url(#clip0_262_5275)">
<path d="M25.3031 15.6182C24.7995 12.2544 22.8754 9.93002 19.5891 8.70973C19.2211 8.57415 18.8401 8.48376 18.4721 8.39982C18.3817 8.38045 18.2849 8.35463 18.1945 8.33526C18.1945 7.98015 18.1945 7.62504 18.1945 7.26993C18.188 6.26917 18.188 5.23612 18.2074 4.22245C18.2267 3.35081 17.9104 2.64705 17.2583 2.07888C16.6836 1.58172 15.9928 1.20725 15.0179 0.871506C13.6039 0.387266 12.022 0.103178 10.1884 0.0192434C7.70906 -0.0969741 5.50738 0.148374 3.46712 0.781114C2.49864 1.07811 1.76259 1.43968 1.14277 1.92392C0.367982 2.52438 -0.00649654 3.27334 -4.00076e-05 4.21599C0.0257861 8.21258 0.0257861 12.1833 -4.00076e-05 16.0121C-0.00649654 16.9741 0.374439 17.7295 1.16859 18.33C1.70448 18.7367 2.33722 19.066 3.11846 19.3307C4.82944 19.9183 6.69538 20.2153 8.82604 20.2282C8.97454 20.2282 8.98099 20.2411 9.03265 20.3573C10.4273 23.4629 13.507 25.4063 16.8321 25.4063C17.2906 25.4063 17.7554 25.3676 18.2267 25.2901C20.4543 24.9221 22.4106 23.7212 23.7471 21.9069C25.09 20.0797 25.6388 17.8522 25.3031 15.6182ZM1.69157 6.40475C1.69157 6.37247 1.69157 6.34019 1.69157 6.30145C2.20164 6.59845 2.76336 6.8438 3.42838 7.05686C4.59055 7.43134 5.84312 7.67023 7.26356 7.78645C9.26508 7.94786 11.2085 7.85102 13.0292 7.50236C14.0235 7.30867 15.3084 7.00521 16.4964 6.31436V8.25778C16.4577 8.26423 16.4189 8.26423 16.3802 8.27069C16.0832 8.29652 15.7797 8.32234 15.4763 8.37399C14.0558 8.59352 12.7387 9.16815 11.5636 10.0785C11.4668 10.156 11.3828 10.1883 11.3441 10.1947C8.61943 10.4788 6.24988 10.298 4.10631 9.63948C3.65436 9.49743 3.22823 9.29082 2.76981 9.06484C2.61486 8.98736 2.4599 8.90989 2.29848 8.83887C2.22101 8.80013 2.13707 8.7291 2.05314 8.64517C2.03377 8.6258 2.0144 8.61289 1.99503 8.59352C1.78196 8.39982 1.68511 8.21904 1.68511 7.99952C1.69157 7.46362 1.69157 6.9471 1.69157 6.40475ZM16.2381 4.4226C15.8443 4.81645 15.3407 5.04888 14.8629 5.23612C13.7717 5.67516 12.5708 5.93988 11.0794 6.08193C10.6016 6.12712 10.1173 6.15295 9.72995 6.17232C9.58791 6.17877 9.45878 6.18523 9.34902 6.19169C6.80514 6.1594 5.04251 5.88177 3.46066 5.27486C3.10555 5.13927 2.77627 4.94558 2.42116 4.74542C2.35014 4.70023 2.27266 4.66149 2.20164 4.62275C2.09188 4.56464 1.98857 4.44842 1.88527 4.33866C1.63346 4.06103 1.62701 3.81568 1.87235 3.5316C2.18872 3.16357 2.62131 2.9376 3.04744 2.7439C3.97718 2.32423 5.03605 2.04659 6.37901 1.85935C7.3023 1.73022 8.21912 1.67212 9.12304 1.67212C10.3885 1.67212 11.6346 1.79479 12.8549 2.04014C13.591 2.18864 14.5465 2.41462 15.4117 2.87949C15.741 3.05381 16.0122 3.24751 16.2317 3.44766C16.4125 3.61553 16.5029 3.77049 16.5029 3.91899C16.5158 4.06749 16.4254 4.24182 16.2381 4.4226ZM8.60006 14.4367C6.75995 14.3786 5.29432 14.1526 4.00301 13.7265C3.56396 13.5844 3.14429 13.3778 2.70525 13.1583C2.58257 13.0937 2.45344 13.0356 2.33077 12.9775C2.24038 12.9323 2.14353 12.8484 2.04668 12.758L1.98857 12.7063C1.78196 12.5255 1.69157 12.3383 1.69157 12.1123C1.69157 11.5893 1.69157 11.0599 1.69157 10.5305V10.4401C3.73829 11.5764 5.93351 11.8476 8.01252 11.9638C8.55486 11.9961 9.11012 11.9832 9.63956 11.9767C9.68476 11.9767 9.72995 11.9767 9.77515 11.9767C9.25217 12.7192 8.85832 13.5457 8.60006 14.4367ZM11.9704 11.938C13.2746 10.6402 14.992 9.93002 16.8192 9.93002C16.8257 9.93002 16.8386 9.93002 16.845 9.93002C20.6286 9.94293 23.7148 13.0356 23.7277 16.8191C23.7342 18.6528 23.0175 20.3767 21.7133 21.6874C20.4026 22.998 18.6722 23.7212 16.8386 23.7212H16.8321C13.0292 23.7147 9.93656 20.6156 9.93656 16.8127C9.94302 14.9726 10.6597 13.2422 11.9704 11.938ZM1.69157 14.6433C1.69157 14.611 1.69157 14.5787 1.69157 14.5464C3.77703 15.6957 6.08201 15.9669 8.2966 16.1025C8.23849 16.9676 8.28369 17.7747 8.4451 18.5495C8.39991 18.5495 8.36117 18.543 8.31597 18.543C7.91567 18.5172 7.53473 18.4978 7.1538 18.4591C5.59777 18.3106 4.35166 18.0265 3.24114 17.5681C2.85375 17.4067 2.36305 17.1742 1.9692 16.7933C1.78196 16.6061 1.69803 16.4317 1.69803 16.2187C1.69157 15.7022 1.69157 15.1856 1.69157 14.6433Z" fill="#357D3D"/>
<path d="M14.7595 18.5493C14.7078 18.5493 14.6562 18.5493 14.5981 18.5493C14.4754 18.5493 14.3527 18.5493 14.2236 18.5493C13.7846 18.5558 13.4424 18.9044 13.4488 19.337C13.4553 19.7632 13.791 20.0989 14.2236 20.1053C14.4173 20.1053 14.6175 20.1053 14.8111 20.1053V21.5064C14.8111 21.7776 14.8951 22.0036 15.0565 22.165C15.1985 22.3006 15.3793 22.378 15.5859 22.378H15.5924C16.0508 22.3716 16.3607 22.0229 16.3607 21.5V20.1053H16.4447C16.761 20.1053 17.0709 20.1053 17.3744 20.1053C17.8263 20.1053 18.175 19.7632 18.175 19.3241C18.175 18.8851 17.8263 18.5493 17.3744 18.5493C17.0968 18.5493 16.8256 18.5493 16.548 18.5493H16.3736V17.8327H16.5221C16.9418 17.8327 17.355 17.8327 17.7682 17.8327C17.9361 17.8327 18.0975 17.8197 18.2525 17.8068C19.0595 17.7164 19.8085 17.2709 20.3121 16.593C20.8157 15.9086 21.0159 15.0563 20.8609 14.2557C20.5704 12.7578 19.3501 11.7441 17.8263 11.7441C17.3098 11.7441 16.7998 11.7441 16.2832 11.7441H15.6828C15.1211 11.7441 14.8111 12.0541 14.8111 12.6093V16.2895C14.6239 16.2895 14.4431 16.2895 14.2623 16.2895C14.0428 16.2895 13.8362 16.367 13.6877 16.5091C13.5328 16.6511 13.4488 16.8577 13.4488 17.0708C13.4488 17.5098 13.8039 17.8391 14.2688 17.8456C14.3721 17.8456 14.4819 17.8456 14.5852 17.8456H14.8047V18.5622H14.7595V18.5493ZM16.3801 16.2831V13.2937C16.4834 13.2937 16.5932 13.2937 16.6965 13.2937C17.0838 13.2937 17.4712 13.2937 17.8586 13.2937C18.6463 13.3002 19.2726 13.8683 19.3565 14.656C19.434 15.3921 18.9304 16.0765 18.1879 16.2443C18.0911 16.2637 18.0007 16.2766 17.9232 16.2766C17.4648 16.2831 16.9999 16.2766 16.548 16.2766L16.3801 16.2831Z" fill="#357D3D"/>
</g>
<defs>
<clipPath id="clip0_262_5275">
<rect width="25.4" height="25.4" fill="white"/>
</clipPath>
</defs>
</svg>
