<svg width="23" height="24" viewBox="0 0 23 24" fill="none" xmlns="http://www.w3.org/2000/svg">
<g clip-path="url(#clip0_262_5287)">
<path d="M11.2277 21.2664C11.0929 21.2371 10.9524 21.2312 10.8352 21.2312C9.63458 21.2312 8.43977 21.2312 7.23911 21.2312C5.85689 21.2312 4.47466 21.2312 3.09244 21.2312H3.08658C2.94601 21.2312 2.81131 21.2312 2.70003 21.2078C2.13776 21.0848 1.79221 20.6338 1.79221 20.0306C1.79221 17.9806 1.79221 15.9249 1.79221 13.875V11.5205V9.13089C1.79221 7.09855 1.79221 5.06621 1.79221 3.03973C1.79221 2.2959 2.26662 1.81564 3.00458 1.81564C7.09269 1.81564 11.1749 1.81564 15.263 1.81564C15.3626 1.81564 15.4563 1.81564 15.5325 1.83321C16.1006 1.94449 16.4696 2.40718 16.4696 3.00458C16.4696 4.31653 16.4696 5.63433 16.4696 6.94627C16.4696 7.75452 16.4696 8.55691 16.4696 9.36516C16.4696 9.64629 16.5691 9.89228 16.7507 10.0738C16.9147 10.2378 17.1373 10.3257 17.3774 10.3198C17.8869 10.314 18.2618 9.91571 18.2618 9.37688C18.2618 8.86147 18.2618 8.34021 18.2618 7.8248C18.2618 6.24344 18.2676 4.60351 18.2559 2.99287C18.2501 2.16119 17.9396 1.3998 17.3774 0.855106C16.8268 0.298701 16.0596 0 15.2221 0C11.1691 0 7.11026 0 3.0573 0C1.28852 0 0.00585689 1.2768 0 3.03973C0 8.70334 0 14.4079 0 19.9896C0 20.8388 0.310415 21.6119 0.866819 22.1683C1.42322 22.7247 2.20219 23.0293 3.05144 23.0293C3.9944 23.0293 4.93736 23.0293 5.88617 23.0293C7.54367 23.0293 9.20117 23.0293 10.8587 23.0293C10.9758 23.0293 11.0988 23.0234 11.2277 22.9941C11.6376 22.9004 11.9246 22.5315 11.9188 22.1156C11.9129 21.7056 11.6259 21.3601 11.2277 21.2664Z" fill="#357D3D"/>
<path d="M21.5826 18.9527C20.3 17.8575 18.8709 17.6759 18.1271 17.6642H18.1212C18.1154 17.6642 18.1095 17.6642 18.0978 17.6642C16.2939 17.6642 14.9116 18.1093 13.8808 19.0288C12.9671 19.8429 12.4986 20.8855 12.481 22.1271C12.4752 22.6074 12.8442 23.0057 13.3186 23.035C13.3361 23.035 13.3537 23.035 13.3771 23.035C13.8281 23.035 14.203 22.7011 14.2615 22.2384C14.2732 22.1564 14.2791 22.0744 14.2849 22.0041C14.3435 21.1725 14.7242 20.5341 15.427 20.1065C16.6687 19.351 18.0275 19.2397 19.4624 19.7785C20.6045 20.2061 21.1785 20.9792 21.2195 22.133C21.2254 22.3731 21.3308 22.5898 21.5065 22.7538C21.6822 22.9178 21.9165 23.0057 22.1507 22.9881C22.6427 22.9647 23.0176 22.5605 23.0059 22.0686C22.9766 20.7859 22.5022 19.7375 21.5826 18.9527Z" fill="#357D3D"/>
<path d="M17.7757 10.8293C16.9323 10.8293 16.1416 11.1514 15.55 11.7371C14.9526 12.3228 14.6246 13.1135 14.6246 13.9569C14.6188 14.8003 14.9468 15.5909 15.5383 16.1883C16.1299 16.7857 16.9205 17.1137 17.7639 17.1196C17.7698 17.1196 17.7698 17.1196 17.7757 17.1196C18.6015 17.1196 19.3863 16.7916 19.9837 16.2001C20.5811 15.6026 20.9149 14.8178 20.9149 13.9861C20.9149 12.2525 19.5152 10.8351 17.7932 10.8293C17.7815 10.8293 17.7815 10.8293 17.7757 10.8293ZM17.7288 12.3814C17.7347 12.3814 17.7464 12.3814 17.7522 12.3814C18.2032 12.3872 18.619 12.5688 18.9236 12.8792C19.2165 13.1779 19.3687 13.5762 19.3629 13.9979C19.357 14.4196 19.1813 14.8178 18.8709 15.1165C18.5605 15.4152 18.1505 15.5734 17.7229 15.5617C16.8561 15.5441 16.1592 14.8061 16.1767 13.9276C16.1884 13.0842 16.8971 12.3814 17.7288 12.3814Z" fill="#357D3D"/>
<path d="M14.0683 7.02854C14.3494 7.02854 14.6013 6.92897 14.777 6.75326C14.941 6.58927 15.0288 6.36671 15.0288 6.12657C15.023 5.61703 14.6306 5.24218 14.0859 5.24218C10.4078 5.23633 6.78235 5.23633 4.02961 5.23633C3.64891 5.23633 3.35607 5.41789 3.19793 5.74002C3.06322 6.02115 3.07493 6.33157 3.23307 6.58927C3.40292 6.85869 3.70748 7.02268 4.05303 7.02268C4.76758 7.02268 5.48212 7.02268 6.1908 7.02268C6.76477 7.02268 7.33875 7.02268 7.91858 7.02268H10.6889C11.8193 7.02854 12.9438 7.02854 14.0683 7.02854Z" fill="#357D3D"/>
<path d="M9.56408 9.91602C8.92568 9.91602 8.28728 9.91602 7.64888 9.91602H6.86405C6.60049 9.91602 6.33693 9.91602 6.07337 9.91602C5.43497 9.91602 4.77314 9.91602 4.12303 9.91602C3.83604 9.91602 3.57834 10.0214 3.40263 10.2089C3.23864 10.3846 3.15664 10.6247 3.17421 10.8765C3.2035 11.3802 3.59591 11.7082 4.16988 11.7082C4.88442 11.7082 5.62239 11.7082 6.40136 11.7082C7.37946 11.7082 8.41027 11.7082 9.51136 11.7082C9.64022 11.7082 9.73978 11.6965 9.83935 11.6731C10.0912 11.6145 10.3079 11.4505 10.425 11.2162C10.5422 10.982 10.5539 10.7126 10.4543 10.4666C10.3548 10.2206 10.1146 9.91602 9.56408 9.91602Z" fill="#357D3D"/>
</g>
<defs>
<clipPath id="clip0_262_5287">
<rect width="23" height="23.0351" fill="white"/>
</clipPath>
</defs>
</svg>
