<svg width="908" height="556" viewBox="0 0 908 556" fill="none" xmlns="http://www.w3.org/2000/svg">
<g clip-path="url(#clip0_361_7525)">
<path d="M655.671 27.3396C659.002 24.0091 663.625 21.9213 668.695 21.9213H686.988C689.722 9.39457 700.907 -0.0501709 714.229 -0.0501709C727.6 -0.0501709 738.785 9.34486 741.469 21.9213H746.39C751.461 21.9213 756.084 23.9594 759.414 27.3396C762.745 30.6701 764.832 35.293 764.832 40.3634C764.832 45.9805 762.297 51.0012 758.321 54.3814C755.089 57.1154 750.964 58.7558 746.39 58.7558H668.645C663.575 58.7558 658.952 56.7177 655.621 53.3375C652.291 50.007 650.203 45.384 650.203 40.3137C650.253 35.293 652.341 30.6701 655.671 27.3396Z" fill="#EDEDED"/>
<path d="M431.73 55.077C428.598 51.9453 424.273 50.0066 419.501 50.0066H402.302C399.717 38.2256 389.228 29.3773 376.702 29.3773C364.125 29.3773 353.637 38.2256 351.101 50.0066H346.478C341.706 50.0066 337.382 51.9453 334.25 55.077C331.118 58.2086 329.18 62.5333 329.18 67.3054C329.18 72.5746 331.566 77.3467 335.294 80.4783C338.326 83.0632 342.203 84.6042 346.478 84.6042H419.551C424.323 84.6042 428.648 82.6656 431.779 79.5339C434.911 76.4022 436.85 72.0775 436.85 67.3054C436.8 62.5333 434.861 58.2086 431.73 55.077Z" fill="#EDEDED"/>
<path d="M907.096 289.605V387.582C818.017 372.172 698.268 358.055 558.188 358.055C249.046 358.104 6.56495 426.803 6.56495 426.803C-11.4298 388.328 8.50361 277.526 55.4291 251.627C102.355 225.679 143.116 277.576 180.199 259.034C217.232 240.493 182.585 76.7008 239.502 66.1625C296.419 55.6241 332.21 161.008 401.753 161.008C471.296 161.008 460.758 55.6241 542.082 51.3989C623.406 47.1736 621.268 159.268 670.182 159.268C719.096 159.268 699.262 114.331 775.964 112.989C852.665 111.646 873.791 271.66 906.649 289.307C906.798 289.456 906.947 289.555 907.096 289.605Z" fill="url(#paint0_linear_361_7525)"/>
<path d="M200.731 436.845C191.833 436.596 182.14 433.464 182.339 419.148C182.538 404.832 192.927 402.595 194.021 391.907C195.064 381.22 195.114 371.228 200.731 371.129C206.348 371.03 202.769 375.603 205.404 380.574C207.989 385.545 213.059 391.907 212.065 401.153C211.071 410.449 217.682 413.978 217.334 421.584C216.986 429.14 212.264 437.193 200.731 436.845Z" fill="#ECECEC"/>
<path d="M204.013 400.309C203.864 400.159 203.616 400.159 203.467 400.309C203.317 400.458 203.317 400.706 203.467 400.855C203.467 400.855 205.803 403.192 205.554 411.095C205.356 417.955 201.826 428.543 200.683 431.725C199.639 429.239 198.247 426.505 197.104 424.169C196.308 422.628 195.662 421.236 195.314 420.391C193.972 417.259 196.01 410.747 196.01 410.648C196.06 410.449 195.961 410.201 195.762 410.151C195.563 410.101 195.314 410.201 195.265 410.399C195.165 410.698 193.127 417.259 194.569 420.64C194.917 421.534 195.613 422.876 196.408 424.467C198.496 428.692 201.677 435.055 201.627 437.541C201.578 440.971 201.13 445.942 201.13 445.991C201.13 446.19 201.279 446.389 201.478 446.389C201.478 446.389 201.478 446.389 201.528 446.389C201.727 446.389 201.876 446.24 201.926 446.041C201.926 445.991 202.323 441.02 202.423 437.541C202.423 436.447 201.926 434.707 201.13 432.769C201.627 431.377 206.101 418.85 206.35 411.095C206.598 402.794 204.113 400.408 204.013 400.309Z" fill="#E8E8E8"/>
<path d="M650.943 310.335C643.338 310.086 635.086 307.452 635.285 295.223C635.484 282.995 644.332 281.106 645.227 272.009C646.121 262.862 646.171 254.362 650.943 254.313C655.715 254.213 652.683 258.14 654.92 262.365C657.157 266.591 661.432 272.009 660.636 279.913C659.791 287.816 665.458 290.849 665.16 297.311C664.812 303.773 660.786 310.633 650.943 310.335Z" fill="#ECECEC"/>
<path d="M653.78 279.167C653.631 279.018 653.432 279.068 653.332 279.167C653.183 279.316 653.233 279.515 653.332 279.615C653.332 279.615 655.321 281.603 655.122 288.363C654.973 294.179 651.941 303.226 650.946 305.96C650.052 303.823 648.908 301.487 647.914 299.498C647.268 298.156 646.671 297.013 646.373 296.267C645.23 293.632 646.97 288.015 646.97 287.966C647.019 287.767 646.92 287.618 646.771 287.568C646.572 287.518 646.423 287.618 646.373 287.767C646.323 288.015 644.584 293.632 645.777 296.516C646.075 297.261 646.671 298.405 647.318 299.747C649.107 303.326 651.791 308.794 651.742 310.882C651.692 313.814 651.344 318.04 651.344 318.089C651.344 318.288 651.443 318.437 651.642 318.437C651.642 318.437 651.642 318.437 651.692 318.437C651.841 318.437 651.99 318.288 652.04 318.139C652.04 318.089 652.388 313.864 652.438 310.931C652.438 309.987 651.99 308.496 651.344 306.855C651.791 305.662 655.569 295.024 655.768 288.363C655.967 281.305 653.829 279.267 653.78 279.167Z" fill="#E8E8E8"/>
<path d="M262.616 325.346C257.397 325.197 251.73 323.357 251.829 314.957C251.979 306.556 258.043 305.263 258.689 298.95C259.336 292.637 259.335 286.821 262.616 286.771C265.897 286.722 263.809 289.406 265.35 292.289C266.891 295.222 269.824 298.95 269.277 304.368C268.681 309.836 272.558 311.875 272.359 316.348C272.16 320.822 269.377 325.545 262.616 325.346Z" fill="#ECECEC"/>
<path d="M264.554 303.921C264.454 303.822 264.305 303.822 264.256 303.921C264.156 304.021 264.156 304.17 264.256 304.219C264.256 304.219 265.598 305.611 265.498 310.234C265.399 314.261 263.311 320.474 262.615 322.314C262.019 320.872 261.223 319.232 260.527 317.89C260.08 316.995 259.682 316.199 259.484 315.702C258.688 313.863 259.881 310.035 259.881 309.986C259.931 309.886 259.831 309.737 259.732 309.687C259.633 309.638 259.484 309.737 259.434 309.837C259.384 309.986 258.191 313.863 259.036 315.851C259.235 316.349 259.633 317.144 260.13 318.088C261.372 320.574 263.212 324.302 263.162 325.744C263.112 327.782 262.864 330.665 262.864 330.665C262.864 330.814 262.963 330.913 263.063 330.913C263.162 330.913 263.261 330.814 263.311 330.714C263.311 330.665 263.56 327.782 263.609 325.744C263.609 325.097 263.311 324.103 262.864 322.91C263.162 322.065 265.797 314.758 265.896 310.185C266.045 305.363 264.604 303.971 264.554 303.921Z" fill="#E8E8E8"/>
<path d="M816.624 422.627C807.477 422.329 797.585 419.148 797.784 404.483C797.983 389.819 808.67 387.533 809.764 376.547C810.858 365.561 810.907 355.371 816.624 355.222C822.341 355.122 818.712 359.795 821.396 364.915C824.08 370.035 829.25 376.497 828.256 386.041C827.262 395.536 834.022 399.214 833.674 406.969C833.277 414.773 828.455 423.025 816.624 422.627Z" fill="#ECECEC"/>
<path d="M820.004 385.196C819.855 385.047 819.606 385.047 819.457 385.196C819.308 385.345 819.308 385.594 819.457 385.743C819.457 385.743 821.843 388.129 821.595 396.231C821.396 403.24 817.767 414.127 816.574 417.358C815.481 414.823 814.089 411.989 812.945 409.603C812.15 408.013 811.454 406.621 811.106 405.726C809.764 402.545 811.802 395.834 811.852 395.784C811.901 395.585 811.802 395.337 811.603 395.287C811.404 395.237 811.156 395.337 811.106 395.536C811.007 395.834 808.919 402.594 810.41 406.024C810.808 406.919 811.504 408.311 812.299 409.951C814.437 414.276 817.668 420.788 817.618 423.373C817.568 426.902 817.121 431.972 817.121 432.022C817.121 432.221 817.27 432.42 817.469 432.469C817.469 432.469 817.469 432.469 817.519 432.469C817.717 432.469 817.916 432.32 817.916 432.122C817.916 432.072 818.364 427.001 818.413 423.422C818.413 422.279 817.916 420.539 817.121 418.501C817.668 417.06 822.241 404.235 822.44 396.281C822.639 387.731 820.103 385.295 820.004 385.196Z" fill="#E8E8E8"/>
<path d="M776.511 537.157C776.511 547.298 655.867 555.5 507.088 555.5C358.308 555.5 237.664 547.298 237.664 537.157C237.664 527.016 358.308 518.814 507.088 518.814C655.917 518.814 776.511 527.016 776.511 537.157Z" fill="url(#paint1_radial_361_7525)"/>
<path d="M403.991 481.384H377.148V532.386H331.565V481.384H237.664V440.672L324.854 296.764H377.198V444.947H404.041V481.384H403.991ZM331.565 444.947V342.795L272.361 444.947H331.565Z" fill="#357D3D"/>
<path d="M570.862 325.545C583.041 346.821 589.106 376.994 589.106 416.165C589.106 455.286 583.041 485.46 570.862 506.586C558.684 527.762 537.508 538.301 507.334 538.301C477.111 538.301 455.935 527.712 443.806 506.586C431.627 485.46 425.562 455.286 425.562 416.165C425.562 377.044 431.627 346.821 443.806 325.545C455.935 304.27 477.111 293.632 507.334 293.632C537.557 293.682 558.733 304.319 570.862 325.545ZM479.845 478.699C484.319 493.165 493.465 500.372 507.334 500.372C521.203 500.372 530.25 493.165 534.575 478.699C538.899 464.234 541.037 443.406 541.037 416.165C541.037 387.582 538.899 366.456 534.575 352.736C530.25 339.016 521.203 332.107 507.334 332.107C493.465 332.107 484.319 338.967 479.845 352.736C475.371 366.456 473.134 387.632 473.134 416.165C473.184 443.406 475.421 464.284 479.845 478.699Z" fill="#357D3D"/>
<path d="M776.514 481.384H749.671V532.386H704.038V481.384H610.188V440.672L697.377 296.764H749.721V444.947H776.564V481.384H776.514ZM704.088 444.947V342.795L644.885 444.947H704.088Z" fill="#357D3D"/>
<path opacity="0.1" d="M457.995 166.347C461.669 153.807 454.483 140.663 441.943 136.988C429.403 133.313 416.258 140.5 412.583 153.04C408.909 165.58 416.095 178.725 428.635 182.399C441.175 186.074 454.32 178.887 457.995 166.347Z" fill="white"/>
<path opacity="0.17" d="M450.171 152.457C449.326 152.457 448.53 151.91 448.232 151.065C447.387 148.38 445.548 146.143 443.062 144.851C440.577 143.559 437.694 143.26 435.009 144.105C433.965 144.453 432.822 143.857 432.474 142.763C432.126 141.719 432.723 140.576 433.816 140.228C437.544 139.085 441.472 139.433 444.901 141.222C448.331 143.012 450.867 146.094 452.06 149.772C452.408 150.816 451.811 151.959 450.717 152.307C450.568 152.407 450.369 152.457 450.171 152.457Z" fill="#357D3D"/>
<path d="M426.862 132.672C411.899 137.345 403.598 153.252 408.27 168.165C412.943 183.127 428.85 191.429 443.763 186.756C458.725 182.083 467.027 166.176 462.354 151.264C457.681 136.301 441.774 128 426.862 132.672ZM442.371 182.282C429.894 186.159 416.622 179.2 412.695 166.723C408.817 154.246 415.777 140.974 428.254 137.047C440.731 133.17 454.003 140.129 457.93 152.606C461.807 165.132 454.848 178.405 442.371 182.282Z" fill="#D9D9D9"/>
<path d="M445.822 185.117L441.125 186.585L447.825 208.031L452.522 206.564L445.822 185.117Z" fill="#D9D9D9"/>
<path d="M462.202 245.81C459.22 246.755 455.989 245.065 455.044 242.082L444.755 209.125C444.257 207.534 445.152 205.844 446.743 205.347L451.863 203.756C453.454 203.259 455.144 204.154 455.641 205.745L465.931 238.702C466.875 241.635 465.185 244.866 462.202 245.81Z" fill="url(#paint2_linear_361_7525)"/>
<path d="M464.188 231.296C464.188 231.296 453.6 224.734 450.369 221.354C447.188 217.974 445.796 216.433 446.641 215.737C447.486 215.041 456.434 218.968 457.279 218.321C458.124 217.675 457.378 215.985 458.372 215.24C459.367 214.494 465.133 220.459 466.475 220.012C467.867 219.564 465.779 230.252 464.188 231.296Z" fill="#FFAA9D"/>
<path d="M421.888 353.133L414.083 360.639L394.398 342.396L400.861 331.857L421.888 353.133Z" fill="#FFAA9D"/>
<path d="M415.223 359.545C415.223 359.545 409.805 366.355 408.761 366.355C407.717 366.355 385 341.749 385.149 340.954C385.298 340.159 395.24 341.004 395.24 341.004L415.223 359.545Z" fill="url(#paint3_linear_361_7525)"/>
<path d="M399.664 330.764C399.664 330.764 422.431 354.574 423.326 354.574C424.22 354.574 532.934 271.112 532.934 271.112L486.854 250.682C486.854 250.682 428.297 266.738 399.664 330.764Z" fill="url(#paint4_linear_361_7525)"/>
<path d="M502.858 337.922L506.735 348.013L482.179 358.949L475.07 348.808L502.858 337.922Z" fill="#FFAA9D"/>
<path d="M483.225 250.682C483.225 250.682 444.75 258.735 441.42 271.759C438.089 284.783 441.121 299.049 451.709 315.702C462.298 332.354 473.084 350.498 475.321 351.095C475.321 351.095 503.805 339.661 504.451 338.27C505.097 336.828 488.494 297.607 488.494 297.607C488.494 297.607 522.296 295.371 530.2 275.437L483.225 250.682Z" fill="url(#paint5_linear_361_7525)"/>
<path d="M480.541 250.533C480.193 252.819 522.197 279.116 529.654 277.873C537.11 276.58 546.704 245.91 544.07 222.994C541.385 200.078 520.855 182.879 511.51 183.674C502.165 184.469 497.144 193.268 495.852 207.236C494.012 227.667 480.939 247.998 480.541 250.533Z" fill="url(#paint6_linear_361_7525)"/>
<path d="M515.685 187.154C520.656 186.707 537.706 196.698 541.682 226.225C545.659 255.703 529.404 258.188 515.685 256.3C502.015 254.411 467.566 237.509 462.496 231.445C462.496 231.445 461.402 221.95 465.081 218.57C465.081 218.57 498.286 221.95 506.936 224.535C515.585 227.12 496.944 188.794 515.685 187.154Z" fill="url(#paint7_linear_361_7525)"/>
<path d="M506.141 346.522C506.141 346.522 510.266 354.177 509.869 355.121C509.471 356.066 477.906 367.3 477.21 366.853C476.564 366.405 481.236 357.607 481.236 357.607L506.141 346.522Z" fill="url(#paint8_linear_361_7525)"/>
<path d="M487.899 168.016L487.75 178.554L489.341 178.504C489.341 178.504 490.583 187.203 496.747 185.861C498.537 185.464 500.774 183.972 501.42 184.271C502.215 184.619 502.514 187.005 502.712 187.701C503.359 190.335 512.605 187.651 511.113 184.967C509.672 182.382 507.584 178.902 508.031 177.908C509.622 174.528 510.02 166.077 501.569 163.244C494.759 161.007 487.949 164.387 487.899 168.016Z" fill="#FFAA9D"/>
<path d="M511.114 184.966C509.672 182.381 507.584 178.902 508.032 177.907C508.032 177.907 504.453 183.375 501.172 184.22C501.271 184.22 501.371 184.22 501.47 184.27C502.265 184.618 502.564 187.004 502.763 187.7C503.359 190.335 512.605 187.65 511.114 184.966Z" fill="#FF9F91"/>
<path d="M502.117 173.185C506.094 172.489 503.608 181.338 507.983 181.039C512.357 180.741 515.39 171.197 512.208 163.79C508.977 156.433 502.912 156.831 497.097 157.825C491.281 158.819 484.122 161.454 484.172 165.878C484.172 176.466 496.699 167.568 497.544 170.75C498.19 173.235 499.184 180.344 496.599 180.493C494.064 180.642 491.43 178.554 489.441 179.101C488.298 179.399 485.067 193.318 493.418 193.765C501.67 194.212 503.758 186.955 502.018 180.99C500.377 175.323 500.178 173.533 502.117 173.185Z" fill="#4E4E4E"/>
</g>
<defs>
<linearGradient id="paint0_linear_361_7525" x1="453.562" y1="79.1622" x2="453.562" y2="310.104" gradientUnits="userSpaceOnUse">
<stop stop-color="#EFEFEF"/>
<stop offset="1" stop-color="white"/>
</linearGradient>
<radialGradient id="paint1_radial_361_7525" cx="0" cy="0" r="1" gradientUnits="userSpaceOnUse" gradientTransform="translate(507.101 537.153) scale(279.141 811.847)">
<stop stop-color="#E8E8E8"/>
<stop offset="0.9872" stop-color="#F5F5F5"/>
</radialGradient>
<linearGradient id="paint2_linear_361_7525" x1="450.426" y1="208.141" x2="456.741" y2="228.356" gradientUnits="userSpaceOnUse">
<stop stop-color="#4E4E4E"/>
<stop offset="0.553" stop-color="#5C5C5C"/>
</linearGradient>
<linearGradient id="paint3_linear_361_7525" x1="402.359" y1="347.538" x2="397.472" y2="353.634" gradientUnits="userSpaceOnUse">
<stop stop-color="#195E21"/>
<stop offset="0.9662" stop-color="#125018"/>
</linearGradient>
<linearGradient id="paint4_linear_361_7525" x1="423.603" y1="324.737" x2="457.737" y2="297.24" gradientUnits="userSpaceOnUse">
<stop stop-color="#14691D"/>
<stop offset="0.9662" stop-color="#167C21"/>
</linearGradient>
<linearGradient id="paint5_linear_361_7525" x1="472.515" y1="298.385" x2="532.418" y2="320.111" gradientUnits="userSpaceOnUse">
<stop stop-color="#145B1C"/>
<stop offset="0.9662" stop-color="#105518"/>
</linearGradient>
<linearGradient id="paint6_linear_361_7525" x1="493.398" y1="197.993" x2="523.528" y2="254.423" gradientUnits="userSpaceOnUse">
<stop stop-color="#39D34A"/>
<stop offset="0.9649" stop-color="#30A03D"/>
</linearGradient>
<linearGradient id="paint7_linear_361_7525" x1="502.331" y1="225.282" x2="536.581" y2="297.491" gradientUnits="userSpaceOnUse">
<stop stop-color="#357D3D"/>
<stop offset="0.9649" stop-color="#1B6F24"/>
</linearGradient>
<linearGradient id="paint8_linear_361_7525" x1="490.051" y1="353.638" x2="493.731" y2="360.529" gradientUnits="userSpaceOnUse">
<stop stop-color="#1E6526"/>
<stop offset="0.9662" stop-color="#185F20"/>
</linearGradient>
<clipPath id="clip0_361_7525">
<rect width="907.093" height="555.5" fill="white"/>
</clipPath>
</defs>
</svg>
