<svg width="20" height="23" viewBox="0 0 20 23" fill="none" xmlns="http://www.w3.org/2000/svg">
<path fill-rule="evenodd" clip-rule="evenodd" d="M2.14933 0.975125C2.8379 0.379804 3.75589 0 4.6875 0H16.5625C18.461 0 20 1.57322 20 3.51389V19.4861C20 21.4268 18.461 23 16.5625 23H4.6875C3.75589 23 2.8379 22.6202 2.14933 22.0249C1.45942 21.4284 0.920031 20.5406 0.920031 19.4861C0.920031 18.9568 1.33976 18.5278 1.85753 18.5278C2.3753 18.5278 2.79503 18.9568 2.79503 19.4861C2.79503 19.843 2.98027 20.233 3.36016 20.5614C3.7414 20.8911 4.2384 21.0833 4.6875 21.0833H16.5625C17.4254 21.0833 18.125 20.3682 18.125 19.4861V3.51389C18.125 2.63177 17.4254 1.91667 16.5625 1.91667H4.6875C4.2384 1.91667 3.7414 2.10894 3.36016 2.43855C2.98027 2.767 2.79503 3.15696 2.79503 3.51389C2.79503 4.04316 2.3753 4.47222 1.85753 4.47222C1.33976 4.47222 0.920031 4.04316 0.920031 3.51389C0.920031 2.45942 1.45942 1.5716 2.14933 0.975125ZM7.17262 8.67611C7.17262 6.7939 8.55078 5.11111 10.4315 5.11111H10.8185C12.6992 5.11111 14.0774 6.7939 14.0774 8.67611V9.11056C14.0774 10.0889 13.7051 11.0133 13.0833 11.6756C14.6134 12.4856 15.625 14.2197 15.625 16.1341C15.625 17.0166 14.9686 17.8889 13.9782 17.8889H7.27183C6.2814 17.8889 5.625 17.0165 5.625 16.1341C5.625 14.2197 6.63656 12.4856 8.16665 11.6756C7.54495 11.0133 7.17262 10.0889 7.17262 9.11056V8.67611ZM10.4315 7.02778C9.74814 7.02778 9.04762 7.67908 9.04762 8.67611V9.11056C9.04762 10.1076 9.74814 10.7589 10.4315 10.7589H10.8185C11.5019 10.7589 12.2024 10.1076 12.2024 9.11056V8.67611C12.2024 7.67908 11.5019 7.02778 10.8185 7.02778H10.4315ZM1.40463e-10 7.6666C8.86633e-06 7.13733 0.419749 6.70828 0.937516 6.70829L2.81252 6.70832C3.33028 6.70833 3.75001 7.1374 3.75 7.66667C3.74999 8.19594 3.33025 8.62499 2.81248 8.62499L0.937484 8.62495C0.419717 8.62494 -8.86605e-06 8.19588 1.40463e-10 7.6666ZM1.40463e-10 11.5C8.86633e-06 10.9707 0.419749 10.5416 0.937516 10.5417L2.81252 10.5417C3.33028 10.5417 3.75001 10.9708 3.75 11.5C3.74999 12.0293 3.33025 12.4584 2.81248 12.4584L0.937484 12.4583C0.419717 12.4583 -8.86605e-06 12.0292 1.40463e-10 11.5ZM7.50356 15.9722H13.7464C13.6725 14.2999 12.4588 13.11 11.1409 13.11H10.1091C8.79119 13.11 7.5775 14.2999 7.50356 15.9722ZM1.40463e-10 15.3333C8.86633e-06 14.8041 0.419749 14.375 0.937516 14.375L2.81252 14.3751C3.33028 14.3751 3.75001 14.8041 3.75 15.3334C3.74999 15.8627 3.33025 16.2917 2.81248 16.2917L0.937484 16.2917C0.419717 16.2917 -8.86605e-06 15.8626 1.40463e-10 15.3333Z" fill="#357D3D"/>
</svg>
