<svg width="26" height="20" viewBox="0 0 26 20" fill="none" xmlns="http://www.w3.org/2000/svg">
<path fill-rule="evenodd" clip-rule="evenodd" d="M13.4446 0.0943668C13.1618 -0.0314556 12.8382 -0.0314556 12.5554 0.0943668L0.63871 5.39784C0.249991 5.57083 0 5.95319 0 6.37474C0 6.79629 0.249991 7.17865 0.63871 7.35164L5.15318 9.36078V11.2315C5.15633 11.2307 5.15948 11.2299 5.16264 11.2292V12.346C3.85095 12.7908 2.90812 14.0211 2.90812 15.4691V18.3064C2.90812 18.6942 3.12009 19.0518 3.46232 19.2412L3.60053 19.3177C5.24415 20.2274 7.24766 20.2274 8.89128 19.3177L9.0295 19.2412C9.37172 19.0518 9.58369 18.6942 9.58369 18.3064V15.4691C9.58369 14.0211 8.64086 12.7909 7.32918 12.346V10.3292L12.5554 12.6551C12.8382 12.7809 13.1618 12.7809 13.4446 12.6551L18.6803 10.325V14.4417L17.8174 15.0785C15.7363 16.6143 13.0648 17.0264 10.6669 16.3145V18.3063C10.6669 18.3809 10.663 18.4548 10.6553 18.528C13.5326 19.1935 16.6465 18.616 19.1132 16.7956L20.4114 15.8375C20.6854 15.6353 20.8468 15.317 20.8468 14.9789V9.36078L25.3613 7.35164C25.75 7.17865 26 6.79629 26 6.37474C26 5.95319 25.75 5.57083 25.3613 5.39784L13.4446 0.0943668ZM6.80515 7.74648L13 10.5035L22.2771 6.37474L13 2.24602L3.7229 6.37474L6.5686 7.6412C6.65226 7.66698 6.73156 7.70252 6.80515 7.74648ZM5.07466 15.4691C5.07466 14.8294 5.59905 14.3108 6.24591 14.3108C6.89277 14.3108 7.41715 14.8294 7.41715 15.4691V17.6415C6.66389 17.9294 5.82792 17.9294 5.07466 17.6415V15.4691Z" fill="#357D3D"/>
</svg>
