<svg width="114" height="86" viewBox="0 0 114 86" fill="none" xmlns="http://www.w3.org/2000/svg">
<g clip-path="url(#clip0_201_2835)">
<path d="M19.2844 55.5998C13.1393 55.6172 8.15403 50.6665 8.13672 44.5041C8.13672 38.359 13.122 33.3564 19.2498 33.3564C25.3083 33.3564 30.3455 38.359 30.3801 44.4349C30.4147 50.5799 25.4468 55.5825 19.2844 55.5998ZM12.4469 44.5214C12.4642 48.295 15.5108 51.3243 19.2671 51.307C23.0234 51.2896 26.0526 48.2258 26.0526 44.4522C26.0353 40.7132 22.9541 37.632 19.2151 37.6666C15.4589 37.7013 12.4296 40.7478 12.4469 44.5214Z" fill="#357D3D"/>
<path d="M66.4347 58.6981C60.4974 56.7248 56.1872 51.099 56.1872 44.4866C56.1872 37.4241 61.0859 31.4868 67.6811 29.9462C68.5292 28.2325 69.6025 26.6573 70.8661 25.2551C69.8102 25.2725 68.7543 25.3763 67.6811 25.584C63.1631 26.4149 59.4415 28.6306 56.2391 32.3003C56.2391 31.6945 56.2391 31.4002 56.2391 31.0886C56.2737 25.3417 56.3084 19.6121 56.3603 13.8651C56.3949 8.93178 59.4588 5.26206 64.2364 4.43117C68.5985 3.66953 72.8048 6.24873 74.4666 10.732C75.6264 13.8651 76.7861 16.9983 77.9459 20.1314C79.2442 19.5601 80.6116 19.1101 82.0484 18.8158C80.8021 15.4404 79.5384 12.0649 78.2748 8.70675C75.0724 0.224835 64.5306 -2.70056 57.3816 2.85596C53.6253 5.78136 51.9289 9.69343 52.0501 14.4364C52.0847 15.423 52.0501 16.4097 52.0501 17.431C47.4283 17.431 42.9623 17.431 38.3405 17.431C38.3405 15.977 38.3752 14.5749 38.3405 13.1727C38.1501 7.13154 34.065 2.04239 28.1449 0.449865C22.4499 -1.07342 16.1837 1.41923 13.2064 6.57762C12.1158 8.49903 11.4234 10.6455 10.6272 12.7227C7.47674 21.0315 4.37824 29.3749 1.24512 37.7011C0.154592 40.6092 -0.226229 43.6038 0.119972 46.6677C1.05471 54.9765 7.16516 61.6062 15.474 63.3719C23.35 65.0509 31.6589 61.3293 35.8306 54.2668C36.021 53.9552 36.1941 53.6263 36.4018 53.2801C37.9078 54.1629 39.3445 54.9938 40.7639 55.8593C43.6893 57.6422 46.6147 57.6595 49.5574 55.8939C51.0115 55.0284 52.4655 54.1975 53.9715 53.3147C54.11 53.5224 54.2138 53.6782 54.3004 53.834C56.4468 57.5038 59.2338 60.1695 62.6611 61.814C63.6824 60.7061 65.0153 59.6502 66.4347 58.6981ZM9.96938 26.8477C11.9947 21.395 14.0199 15.925 16.0452 10.4724C17.5512 6.43914 21.2555 4.05035 25.5138 4.34462C29.599 4.62158 33.009 7.66815 33.8572 11.8226C33.9784 12.4284 34.0303 13.0689 34.0303 13.692C34.0823 19.6467 34.0996 25.6187 34.1342 31.5733C34.1342 31.7291 34.1169 31.8676 34.0996 32.1099C26.9505 24.8397 18.9014 23.351 9.69242 27.6786C9.79628 27.367 9.86552 27.1073 9.96938 26.8477ZM19.2129 59.4425C10.9907 59.4079 4.309 52.7089 4.309 44.5039C4.4821 36.1085 10.9041 29.6 19.1956 29.5654C27.5391 29.5307 34.1861 36.2124 34.1688 44.5732C34.1688 52.7608 27.4006 59.4771 19.2129 59.4425ZM38.5136 21.8451C42.9623 21.8451 47.4283 21.8451 51.9289 21.8451C51.9289 26.1033 51.9289 30.327 51.9289 34.6199C51.6346 34.6372 51.4789 34.6545 51.3231 34.6545C47.0994 34.6545 42.8585 34.6545 38.5136 34.6545C38.5136 30.3789 38.5136 26.138 38.5136 21.8451ZM51.9635 49.4719C50.3018 50.4759 48.6227 51.4625 46.9263 52.4146C45.7665 53.0551 44.5721 53.0551 43.4297 52.3973C41.7506 51.4279 40.0715 50.4413 38.4098 49.4373C38.2194 49.3161 37.977 48.9872 38.0116 48.8141C38.756 45.681 38.3925 42.4959 38.479 39.3455C38.479 39.259 38.5136 39.1724 38.5483 38.9647C42.8411 38.9647 47.0648 38.9647 51.3058 38.9647C51.4615 38.9647 51.6173 38.982 51.8597 38.9993C51.8597 39.8994 51.8251 40.7649 51.8597 41.6304C51.9982 44.0019 52.1886 46.3734 52.327 48.7449C52.3617 48.9872 52.1713 49.3507 51.9635 49.4719Z" fill="#357D3D"/>
<path d="M86.0839 85.2003C77.9136 85.2003 69.7259 85.2003 61.5556 85.2003C59.8419 85.2003 58.9937 84.404 59.0802 82.7077C59.6342 71.335 65.0695 63.1992 75.3517 58.3178C76.0787 57.9716 76.7538 58.0755 77.4635 58.3871C80.4235 59.7199 83.5393 60.3431 86.7936 60.2392C89.5286 60.1354 92.1424 59.5468 94.6351 58.4044C95.4486 58.0235 96.193 58.0235 96.9892 58.4044C105.679 62.5068 110.958 69.2578 112.689 78.7264C112.932 80.0765 113.001 81.4786 113.053 82.8461C113.122 84.3348 112.239 85.183 110.751 85.183C102.528 85.2003 94.3062 85.2003 86.0839 85.2003ZM108.777 81.0113C108.777 80.8382 108.777 80.7343 108.777 80.6131C108.777 80.5093 108.76 80.3881 108.743 80.2843C107.548 72.3909 103.48 66.5228 96.4353 62.7319C96.0372 62.5068 95.691 62.4722 95.2236 62.6453C89.1824 64.9649 83.1066 64.9822 77.0481 62.7146C76.4941 62.5068 76.0614 62.5068 75.5421 62.7838C69.5182 66.0208 65.6234 70.9368 63.8751 77.5493C63.5808 78.6571 63.4424 79.8169 63.2173 80.994C78.5021 81.0113 93.6138 81.0113 108.777 81.0113Z" fill="#357D3D"/>
<path d="M86.084 22.8838C95.2583 22.9011 102.702 30.3964 102.667 39.5707C102.632 48.7104 95.1545 56.1364 86.0148 56.1191C76.8578 56.1018 69.3971 48.6065 69.4318 39.4322C69.4837 30.2925 76.9443 22.8665 86.084 22.8838ZM86.0494 51.9647C92.9215 51.9647 98.5299 46.3909 98.5299 39.5188C98.5299 32.6467 92.9561 27.0382 86.084 27.0382C79.2119 27.0382 73.6035 32.6121 73.6035 39.4841C73.5862 46.3389 79.1773 51.9474 86.0494 51.9647Z" fill="#357D3D"/>
</g>
<defs>
<clipPath id="clip0_201_2835">
<rect width="113.052" height="85.2" fill="white"/>
</clipPath>
</defs>
</svg>
