<svg width="26" height="21" viewBox="0 0 26 21" fill="none" xmlns="http://www.w3.org/2000/svg">
<path fill-rule="evenodd" clip-rule="evenodd" d="M3.9 2.275C3.9 1.01855 4.91855 0 6.175 0H23.725C24.9814 0 26 1.01855 26 2.275V17.225C26 19.1994 24.3994 20.8 22.425 20.8H2.925C1.30957 20.8 0 19.4904 0 17.875V7.475C0 6.21855 1.01855 5.2 2.275 5.2H3.9V2.275ZM3.9 7.15H2.275C2.09551 7.15 1.95 7.29551 1.95 7.475V17.875C1.95 18.4135 2.38652 18.85 2.925 18.85C3.46348 18.85 3.9 18.4135 3.9 17.875V7.15ZM5.68356 18.85H22.425C23.3225 18.85 24.05 18.1225 24.05 17.225V2.275C24.05 2.09551 23.9045 1.95 23.725 1.95H6.175C5.99551 1.95 5.85 2.09551 5.85 2.275V17.875C5.85 18.2169 5.79135 18.545 5.68356 18.85ZM7.8 6.1752C7.8 5.63672 8.23652 5.2002 8.775 5.2002H21.125C21.6635 5.2002 22.1 5.63672 22.1 6.1752C22.1 6.71368 21.6635 7.1502 21.125 7.1502H8.775C8.23652 7.1502 7.8 6.71368 7.8 6.1752ZM7.80001 10.0752C7.80001 9.53672 8.23654 9.1002 8.77501 9.1002H13.325C13.8635 9.1002 14.3 9.53672 14.3 10.0752V14.6252C14.3 15.1637 13.8635 15.6002 13.325 15.6002H8.77501C8.23654 15.6002 7.80001 15.1637 7.80001 14.6252V10.0752ZM9.75001 11.0502V13.6502H12.35V11.0502H9.75001ZM16.25 10.0752C16.25 9.53672 16.6865 9.1002 17.225 9.1002L21.125 9.1002C21.6635 9.1002 22.1 9.53672 22.1 10.0752C22.1 10.6137 21.6635 11.0502 21.125 11.0502H17.225C16.6865 11.0502 16.25 10.6137 16.25 10.0752ZM16.25 13.9752C16.25 13.4367 16.6865 13.0002 17.225 13.0002H21.125C21.6635 13.0002 22.1 13.4367 22.1 13.9752C22.1 14.5137 21.6635 14.9502 21.125 14.9502H17.225C16.6865 14.9502 16.25 14.5137 16.25 13.9752Z" fill="#357D3D"/>
</svg>
