<svg width="97" height="86" viewBox="0 0 97 86" fill="none" xmlns="http://www.w3.org/2000/svg">
<g clip-path="url(#clip0_201_2841)">
<path d="M53.1131 18.0537C56.6582 18.1194 59.7767 19.3175 62.3863 21.7958C63.4039 22.7642 63.5188 24.0772 62.6982 25.0292C61.8283 26.0139 60.4989 26.0304 59.3992 25.0784C55.4273 21.6317 50.8481 21.6153 46.8269 25.062C45.6945 26.0304 44.4143 26.0304 43.528 25.062C42.6253 24.0608 42.773 22.7642 43.889 21.7302C46.4659 19.3011 49.5515 18.1194 53.1131 18.0537Z" fill="#357D3D"/>
<path d="M56.0825 58.2821C55.0978 58.397 54.0802 58.4462 53.0626 58.4462C38.1761 58.397 26.2111 46.432 26.1291 31.5127C26.047 16.7247 38.2418 4.52995 53.0954 4.52995C65.323 4.52995 75.6795 12.7364 78.9456 23.9464C80.8824 24.767 82.6714 25.8667 84.2306 27.2289C83.771 23.6673 82.655 20.2042 80.8495 16.9217C74.8917 6.02352 65.4871 0.541624 52.603 0C50.9125 0.213367 48.6967 0.34467 46.5631 0.787817C40.8022 1.98596 35.7798 4.64484 31.5125 8.69882C26.1291 13.8196 22.9286 20.0729 21.9766 27.4095C21.1231 33.9254 22.2228 40.1787 25.2756 46.0217C25.5874 46.6125 25.5382 46.9408 25.0622 47.4168C17.6929 54.7533 10.3399 62.1063 3.00334 69.4592C2.65867 69.8039 2.29759 70.165 1.98575 70.5425C-2.19953 75.5976 0.62348 83.3117 7.07373 84.4442C10.1265 84.9694 12.7033 83.9846 14.8698 81.8345C22.3213 74.3831 29.7727 66.9316 37.2077 59.4802C37.5688 59.1191 37.8478 58.9386 38.3895 59.234C42.0167 61.1543 45.8245 62.3032 49.7964 62.6971C51.5526 61.0394 53.9653 59.4966 56.0825 58.2821ZM25.9813 64.4369C21.238 69.1802 16.4947 73.9235 11.7514 78.6668C9.9624 80.4558 7.64818 80.6528 5.90842 79.1756C4.2179 77.7477 3.95529 75.2858 5.31756 73.546C5.4981 73.2998 5.71147 73.0865 5.90842 72.8731C10.6681 68.1134 15.4279 63.3536 20.1876 58.5775C20.2861 58.479 20.3846 58.397 20.483 58.2985C22.4362 60.2516 24.3401 62.1391 26.2932 64.0922C26.2111 64.1579 26.1126 64.3056 25.9813 64.4369ZM29.6578 60.6619C27.7703 58.7745 25.8665 56.8541 24.0118 55.0159C25.3248 53.7193 26.7692 52.275 27.9345 51.1096C29.7235 52.9151 31.6438 54.8518 33.5477 56.7557C32.4316 57.8717 31.0037 59.3161 29.6578 60.6619Z" fill="#357D3D"/>
<path d="M71.4281 85.4608C63.6813 85.4608 55.918 85.4608 48.1711 85.4608C46.5462 85.4608 45.742 84.7058 45.8241 83.0974C46.3493 72.3141 51.5029 64.6001 61.2522 59.9716C61.9415 59.6434 62.5816 59.7419 63.2545 60.0373C66.0611 61.3011 69.0154 61.892 72.101 61.7935C74.6943 61.695 77.1726 61.137 79.5361 60.0537C80.3075 59.6926 81.0132 59.6926 81.7682 60.0537C90.0075 63.9436 95.0134 70.3446 96.6547 79.3224C96.8845 80.6026 96.9501 81.9321 96.9994 83.2287C97.065 84.6402 96.228 85.4444 94.8164 85.4444C87.0039 85.4608 79.2078 85.4608 71.4281 85.4608ZM92.9454 81.4889C92.9454 81.3248 92.9454 81.2263 92.9454 81.1114C92.9454 81.0129 92.929 80.898 92.9125 80.7996C91.7801 73.3153 87.923 67.7513 81.243 64.1569C80.8655 63.9436 80.5373 63.9107 80.0941 64.0749C74.366 66.2742 68.6051 66.2906 62.8606 64.1405C62.3354 63.9436 61.9251 63.9436 61.4327 64.2062C55.721 67.2754 52.0281 71.9366 50.3704 78.2063C50.0914 79.2568 49.9601 80.3564 49.7467 81.4725C64.2393 81.4889 78.5677 81.4889 92.9454 81.4889Z" fill="#357D3D"/>
<path d="M71.428 26.375C80.1268 26.3914 87.1843 33.4982 87.1515 42.197C87.1187 50.863 80.0283 57.9041 71.3623 57.8877C62.6799 57.8713 55.606 50.7645 55.6388 42.0657C55.6716 33.3997 62.762 26.3586 71.428 26.375ZM71.3787 53.9486C77.8946 53.9486 83.2124 48.6637 83.2124 42.1478C83.2124 35.6319 77.9275 30.3141 71.4115 30.3141C64.8956 30.3141 59.5779 35.5991 59.5779 42.115C59.5779 48.6145 64.8792 53.9322 71.3787 53.9486Z" fill="#357D3D"/>
<path d="M52.6363 48.2702C43.6256 48.024 36.3711 40.6547 36.3055 31.5619C36.2398 22.3215 43.7405 14.788 53.0466 14.7223C59.1522 14.6895 64.5028 17.9229 67.4407 22.8139C68.7045 22.5513 70.0175 22.42 71.3634 22.42C71.6752 22.42 72.0035 22.4364 72.3153 22.4364C68.9343 15.3132 61.6798 10.3565 53.1779 10.2745C41.5084 10.1596 31.9069 19.6954 31.8576 31.4471C31.8084 43.1002 41.295 52.6361 53.0138 52.7181C53.5882 52.7181 54.1463 52.7017 54.7207 52.6689C53.8508 51.3066 53.1451 49.8295 52.6363 48.2702Z" fill="#357D3D"/>
</g>
<defs>
<clipPath id="clip0_201_2841">
<rect width="97" height="85.4618" fill="white"/>
</clipPath>
</defs>
</svg>
