<svg width="31" height="26" viewBox="0 0 31 26" fill="none" xmlns="http://www.w3.org/2000/svg">
<path d="M15.0046 25.2305C11.3402 25.2305 7.67572 25.2305 4.01127 25.2305C2.18777 25.2305 0.739435 24.2927 0.207216 22.7241C0.0763428 22.3257 0.00654367 21.8941 0.00654367 21.4709C-0.00218122 17.097 -0.00218122 12.7232 0.00654367 8.34108C0.00654367 6.23302 1.69045 4.64781 3.90657 4.64781C4.91866 4.64781 5.93947 4.63951 6.95156 4.65611C7.27438 4.66441 7.44888 4.54822 7.57975 4.27434C7.95492 3.52738 8.35627 2.78873 8.74016 2.05008C9.22875 1.12883 10.014 0.664062 11.0959 0.664062C13.312 0.664062 15.5194 0.664062 17.7355 0.664062C18.2241 0.664062 18.5993 0.904748 18.7651 1.29482C18.9221 1.6683 18.8436 2.13307 18.4946 2.36546C18.259 2.52315 17.9449 2.63104 17.6657 2.63934C15.5194 2.66424 13.3731 2.65594 11.218 2.64764C10.8865 2.64764 10.6945 2.73893 10.5549 3.02942C10.1798 3.78467 9.77842 4.53162 9.37708 5.28687C8.90593 6.18322 8.12942 6.63139 7.06498 6.63969C6.01799 6.63969 4.97101 6.63969 3.92402 6.63969C2.82468 6.63969 2.09179 7.32855 2.09179 8.37428C2.08307 12.7481 2.08307 17.1302 2.09179 21.5041C2.09179 22.5415 2.82468 23.2387 3.92402 23.2387C11.3053 23.247 18.6865 23.247 26.0765 23.2387C27.1846 23.2387 27.9087 22.5332 27.9087 21.4709C27.9087 17.8274 27.9087 14.1922 27.9087 10.5487C27.9087 10.4077 27.9088 10.2583 27.9349 10.1172C28.0396 9.59431 28.4846 9.27893 29.043 9.31212C29.5665 9.34532 29.9678 9.7354 29.994 10.25C30.0114 10.557 30.0027 10.8724 30.0027 11.1795C30.0027 14.5989 30.0027 18.0266 30.0027 21.446C30.0027 23.33 28.8074 24.7658 26.9403 25.1475C26.6 25.2139 26.251 25.2305 25.902 25.2305C22.2637 25.2388 18.6342 25.2305 15.0046 25.2305Z" fill="white"/>
<path d="M21.6281 14.2666C21.6368 17.7524 18.6617 20.5825 14.9972 20.5825C11.3502 20.5825 8.39247 17.769 8.37502 14.2915C8.36629 10.8057 11.324 7.9756 14.9885 7.959C18.6442 7.9507 21.6194 10.7808 21.6281 14.2666ZM19.5341 14.2915C19.5429 11.9013 17.5274 9.96748 15.0234 9.95088C12.5281 9.93428 10.4864 11.8681 10.4777 14.25C10.469 16.6403 12.4844 18.574 14.9885 18.5823C17.4925 18.5989 19.5254 16.6735 19.5341 14.2915Z" fill="white"/>
<path d="M27.2238 2.65511C27.8258 2.65511 28.4017 2.64681 28.9775 2.65511C29.4486 2.66341 29.85 2.97049 29.9721 3.37717C30.0943 3.78384 29.9372 4.24031 29.5446 4.4644C29.3614 4.57229 29.1171 4.63039 28.899 4.63869C28.358 4.66359 27.8171 4.64699 27.2238 4.64699C27.2238 5.18645 27.2238 5.69272 27.2238 6.20729C27.2238 6.54757 27.1191 6.83805 26.8399 7.06214C26.5171 7.31112 26.1506 7.37752 25.7667 7.21983C25.3916 7.06214 25.1473 6.78826 25.1385 6.38988C25.1211 5.93341 25.1298 5.47694 25.1298 5.02046C25.1298 4.91257 25.1298 4.79638 25.1298 4.64699C24.5278 4.64699 23.952 4.65529 23.3761 4.64699C22.5821 4.63039 22.0936 3.86684 22.4426 3.21118C22.6345 2.846 22.966 2.66341 23.3936 2.65511C23.9607 2.64681 24.5191 2.65511 25.1298 2.65511C25.1298 2.06585 25.1211 1.49318 25.1298 0.928818C25.1385 0.505545 25.4439 0.156966 25.8714 0.0407735C26.3077 -0.0754193 26.7875 0.0573725 27.0144 0.430849C27.1365 0.630037 27.1976 0.870722 27.2151 1.10311C27.25 1.60938 27.2238 2.11564 27.2238 2.65511Z" fill="white"/>
</svg>
