<svg width="22" height="21" viewBox="0 0 22 21" fill="none" xmlns="http://www.w3.org/2000/svg">
<path d="M10.0456 1.05023C10.3382 0.115047 11.6618 0.11505 11.9544 1.05024L13.6992 6.62688C13.8298 7.04419 14.2163 7.32827 14.6536 7.32827H20.378C21.3376 7.32827 21.7463 8.54861 20.9803 9.12655L16.285 12.6691C15.9477 12.9236 15.8068 13.3627 15.9329 13.766L17.7109 19.4485C18.0013 20.3765 16.9305 21.131 16.1543 20.5454L11.6023 17.111C11.2458 16.842 10.7542 16.842 10.3977 17.111L5.84575 20.5454C5.06954 21.131 3.99873 20.3765 4.28908 19.4485L6.06706 13.7659C6.19325 13.3627 6.05231 12.9236 5.71498 12.6691L1.01971 9.12655C0.253716 8.54861 0.662439 7.32827 1.622 7.32827H7.3464C7.78365 7.32827 8.1702 7.04419 8.30077 6.62688L10.0456 1.05023Z" fill="#357D3D"/>
</svg>
