<svg width="16" height="28" viewBox="0 0 16 28" fill="none" xmlns="http://www.w3.org/2000/svg">
<g clip-path="url(#clip0_198_3471)">
<path d="M7.98972 14.4513C4.04758 14.45 0.85445 11.2131 0.855722 7.22307C0.856994 3.23171 4.05394 -0.00128715 7.99481 3.84435e-07C11.9357 0.00128792 15.1301 3.23815 15.1288 7.22822C15.1237 11.217 11.9293 14.4487 7.98972 14.4513ZM7.98972 4.23599C6.35691 4.23599 5.03312 5.57631 5.03312 7.2295C5.03312 8.8827 6.35691 10.2217 7.98972 10.2217C9.62253 10.2217 10.9463 8.88141 10.9463 7.22822C10.9438 5.57631 9.62126 4.23727 7.98972 4.23599ZM5.10433 20.3469C3.63557 20.0096 2.2342 19.4212 0.958726 18.6087C-0.0128212 17.974 -0.292585 16.6633 0.334342 15.6796C0.951097 14.7114 2.22021 14.4191 3.18921 15.0229C6.12802 16.8834 9.85906 16.8834 12.7979 15.0229C13.7732 14.4036 15.0614 14.6998 15.6756 15.686C16.2924 16.6736 16.0024 17.9817 15.0258 18.6062C15.0245 18.6062 15.0233 18.6074 15.0233 18.6074C13.7491 19.4186 12.3477 20.007 10.8802 20.3456L14.8707 24.3859C15.6655 25.2357 15.6286 26.5773 14.788 27.382C13.9805 28.1545 12.719 28.1545 11.9115 27.382L7.99227 23.4112L4.07047 27.382C3.25407 28.2073 1.93282 28.2073 1.11641 27.382C0.301279 26.5554 0.301279 25.2176 1.11641 24.391L5.10433 20.3469Z" fill="#EB722E"/>
</g>
<defs>
<clipPath id="clip0_198_3471">
<rect width="16" height="28" fill="white" transform="matrix(-1 0 0 1 16 0)"/>
</clipPath>
</defs>
</svg>
