<svg width="23" height="24" viewBox="0 0 23 24" fill="none" xmlns="http://www.w3.org/2000/svg">
<path fill-rule="evenodd" clip-rule="evenodd" d="M23.0002 12.0014C23.0002 11.1693 22.9255 10.3692 22.7868 9.60114H11.7349V14.1403H18.0503C17.7782 15.6072 16.9515 16.85 15.7087 17.6821V20.6264H19.5011C21.72 18.5835 23.0002 15.5752 23.0002 12.0014Z" fill="#4285F4"/>
<path fill-rule="evenodd" clip-rule="evenodd" d="M11.7341 23.4693C14.9025 23.4693 17.5588 22.4186 19.5004 20.6263L15.7079 17.682C14.6571 18.3861 13.313 18.8021 11.7341 18.8021C8.67776 18.8021 6.09079 16.7379 5.16802 13.9642H1.24756V17.0046C3.17845 20.8397 7.14692 23.4693 11.7341 23.4693Z" fill="#34A853"/>
<path fill-rule="evenodd" clip-rule="evenodd" d="M5.1686 13.9642C4.93391 13.2601 4.80056 12.508 4.80056 11.7346C4.80056 10.9612 4.93391 10.2091 5.1686 9.50502V6.46466H1.24815C0.453386 8.04885 0 9.84106 0 11.7346C0 13.6282 0.453386 15.4204 1.24815 17.0046L5.1686 13.9642Z" fill="#FBBC05"/>
<path fill-rule="evenodd" clip-rule="evenodd" d="M11.7341 4.66721C13.457 4.66721 15.0038 5.25928 16.22 6.42209L19.5857 3.05636C17.5535 1.1628 14.8972 0 11.7341 0C7.14692 0 3.17845 2.62964 1.24756 6.46476L5.16802 9.50511C6.09079 6.73145 8.67776 4.66721 11.7341 4.66721Z" fill="#EA4335"/>
</svg>
