<svg width="22" height="22" viewBox="0 0 22 22" fill="none" xmlns="http://www.w3.org/2000/svg">
<path d="M0 10.56C0 5.58067 0 3.09467 1.54 1.54C3.102 0 5.588 0 10.56 0H11.44C16.4193 0 18.9053 0 20.46 1.54C22 3.102 22 5.588 22 10.56V11.44C22 16.4193 22 18.9053 20.46 20.46C18.898 22 16.412 22 11.44 22H10.56C5.58067 22 3.09467 22 1.54 20.46C0 18.898 0 16.412 0 11.44V10.56Z" fill="#0077FF"/>
<path d="M11.7038 15.8473C6.68778 15.8473 3.82778 12.4153 3.71045 6.69532H6.23312C6.31378 10.89 8.16178 12.6647 9.62845 13.0313V6.69532H11.9971V10.3107C13.4418 10.1567 14.9671 8.50665 15.4805 6.68799H17.8418C17.6492 7.62942 17.2646 8.52103 16.712 9.30711C16.1593 10.0932 15.4505 10.7569 14.6298 11.2567C15.5457 11.7125 16.3545 12.3574 17.003 13.1486C17.6514 13.9399 18.1248 14.8597 18.3918 15.8473H15.7885C15.2311 14.1093 13.8378 12.76 11.9971 12.5767V15.8473H11.7111H11.7038Z" fill="white"/>
</svg>
