<svg width="61" height="61" viewBox="0 0 61 61" fill="none" xmlns="http://www.w3.org/2000/svg">
<path d="M30.5 61C13.5733 61 0 47.3911 0 30.5801C0 13.6089 13.5733 0 30.5 0C47.267 0 61 13.6089 61 30.5801C60.8403 47.3911 47.267 61 30.5 61Z" fill="#357D3D"/>
<path d="M18.5042 21.4737H24.8908L21.3781 29.0526H18.3445C16.2689 29.0526 14.5126 27.3158 14.5126 25.2632C14.6723 23.2105 16.4286 21.4737 18.5042 21.4737ZM30.6387 17.6842L35.7479 29.2105H25.3697L30.6387 17.6842ZM37.5042 32.8421L40.8571 40.4211H20.1008L23.6134 32.8421H37.5042ZM45.1681 36.4737C45.1681 37.4211 44.8487 38.2105 44.2101 39L41.3361 32.6842C43.4118 32.8421 45.1681 34.4211 45.1681 36.4737ZM18.5042 32.6842H19.7815L16.2689 40.2632H11.7983V43.8947H14.6723L12.7563 48H16.7479L18.6639 44.0526H41.3361C41.8151 44.0526 42.1345 44.0526 42.6134 43.8947L44.5294 48H48.521L45.9664 42.4737C47.8824 41.0526 49 38.8421 49 36.4737C49 32.3684 45.6471 29.0526 41.4958 29.0526H39.8992L36.2269 21.4737H47.8824V17.8421H34.6303L30.6387 9L26.6471 17.8421H18.5042C14.3529 17.8421 11 21.1579 11 25.2632C11 29.3684 14.3529 32.6842 18.5042 32.6842Z" fill="white"/>
</svg>
