<svg width="16" height="16" viewBox="0 0 16 16" fill="none" xmlns="http://www.w3.org/2000/svg">
<path fill-rule="evenodd" clip-rule="evenodd" d="M4.43471 0.017149C4.62965 0.050471 4.88465 0.149212 5.06701 0.398365L6.68615 2.61052C7.01848 3.06457 7.0889 3.65946 6.87176 4.17856L6.1509 5.90185C6.13547 5.93874 6.14484 5.9657 6.15268 5.97683C6.60966 6.62592 7.18073 7.31816 7.89957 8.04008C7.91081 8.05006 7.92183 8.06043 7.9326 8.0712C8.66461 8.80328 9.36634 9.38326 10.0238 9.84618C10.0349 9.85402 10.0619 9.86339 10.0988 9.84796L11.8218 9.12716C12.3409 8.90998 12.9359 8.98041 13.3899 9.31279L15.6019 10.9319C15.851 11.1143 15.9497 11.3693 15.983 11.5642C16.0149 11.7504 15.997 11.9271 15.9728 12.0621C15.9239 12.334 15.8135 12.6206 15.7046 12.8634C15.4821 13.3594 15.1796 13.8595 15.0328 14.0772L14.9263 14.2352L14.9195 14.2453C14.6224 14.6862 14.1771 15.3469 13.4458 15.6744C12.1812 16.2408 10.5489 16.0203 8.94987 15.3641C7.34398 14.7052 5.63521 13.5544 4.08421 12.019C4.07136 12.0078 4.0588 11.996 4.04655 11.9838C2.47772 10.415 1.30321 8.67988 0.634731 7.0507C-0.0214182 5.45155 -0.24187 3.81915 0.324486 2.5545C0.652013 1.82315 1.31273 1.37782 1.75355 1.0807C1.75693 1.07842 1.7603 1.07615 1.76365 1.07389L1.92164 0.967392C2.13938 0.820614 2.63943 0.518042 3.13551 0.295528C3.37829 0.186627 3.66494 0.0762294 3.93685 0.0273832C4.07179 0.0031415 4.24854 -0.014675 4.43471 0.017149ZM5.04568 10.8613C5.05664 10.871 5.06739 10.8812 5.07791 10.8917C6.52872 12.3426 8.10149 13.3946 9.51931 13.9764C10.9672 14.5706 12.121 14.6242 12.8326 14.3054C13.1208 14.1764 13.3518 13.8875 13.6825 13.3968L13.789 13.2388C13.8992 13.0753 14.1561 12.6507 14.336 12.2495C14.3883 12.133 14.4275 12.0328 14.4546 11.9511L12.5039 10.5232C12.474 10.5013 12.4349 10.4966 12.4007 10.5109L10.6777 11.2318C10.1895 11.436 9.61449 11.3925 9.16023 11.0727C8.43966 10.5653 7.68209 9.93883 6.90108 9.16095C6.88949 9.1507 6.87814 9.14003 6.86705 9.12893C6.07564 8.33752 5.43985 7.56997 4.92617 6.84035C4.60637 6.38611 4.56289 5.81116 4.76709 5.323L5.48795 3.5997C5.50225 3.56552 5.49761 3.52635 5.47573 3.49646L4.04779 1.54553C3.9661 1.57271 3.86587 1.61191 3.7494 1.66415C3.34818 1.84412 2.92352 2.10101 2.76007 2.21119L2.60208 2.31769C2.11144 2.64842 1.82254 2.87939 1.69347 3.16759C1.37471 3.87937 1.42832 5.03329 2.02246 6.48129C2.59601 7.87914 3.6265 9.42756 5.04568 10.8613Z" fill="#357D3D"/>
</svg>
