<svg width="22" height="22" viewBox="0 0 22 22" fill="none" xmlns="http://www.w3.org/2000/svg">
<g clip-path="url(#clip0_449_7012)">
<path d="M11.1504 2.50594C11.5806 0.85465 12.9173 0.0863409 14.0531 0.00606989C15.5963 -0.102869 17.0362 0.906252 17.4263 2.50594C17.5353 2.50594 17.65 2.50594 17.7647 2.50594C18.9293 2.50594 20.0996 2.50021 21.2641 2.50594C21.7919 2.50594 22.1303 2.97037 21.9582 3.43479C21.855 3.71574 21.6083 3.87628 21.2698 3.87628C20.0766 3.87628 18.8776 3.87628 17.6844 3.87628C17.5984 3.87628 17.5123 3.87628 17.432 3.87628C16.9329 5.73398 15.384 6.41055 14.2597 6.39335C13.0378 6.37615 11.6093 5.61931 11.1447 3.87628C11.0586 3.87628 10.9668 3.87628 10.875 3.87628C7.52484 3.87628 4.17465 3.87628 0.824453 3.87628C0.577778 3.87628 0.354049 3.83615 0.18195 3.64693C-0.150775 3.27425 0.0155877 2.67795 0.491729 2.54034C0.606461 2.50594 0.732667 2.50594 0.853137 2.50594C4.18612 2.50594 7.52484 2.50594 10.8578 2.50594C10.9554 2.50594 11.0471 2.50594 11.1504 2.50594ZM14.2826 1.37641C13.273 1.37641 12.4584 2.19632 12.4641 3.20544C12.4698 4.2031 13.2844 5.01728 14.2826 5.02301C15.2808 5.02874 16.1183 4.19737 16.1183 3.19971C16.1126 2.19059 15.2865 1.37641 14.2826 1.37641Z" fill="white"/>
<path d="M11.1477 19.4951C11.0502 19.4951 10.9584 19.4951 10.8666 19.4951C7.52217 19.4951 4.18345 19.4951 0.838988 19.4951C0.707046 19.4951 0.56363 19.4836 0.437424 19.4435C0.139119 19.3403 -0.0387171 19.0134 0.00717604 18.7038C0.0588058 18.3827 0.322691 18.1419 0.655416 18.1247C0.735729 18.119 0.810305 18.1247 0.890618 18.1247C4.21787 18.1247 7.54512 18.1247 10.8724 18.1305C11.0731 18.1305 11.1592 18.0789 11.2166 17.8724C11.6009 16.5365 12.9031 15.5905 14.2971 15.6077C15.7083 15.6249 16.9704 16.5766 17.3433 17.9183C17.3892 18.0846 17.4523 18.1305 17.6187 18.1247C18.8406 18.119 20.0682 18.119 21.2901 18.1247C21.6343 18.1247 21.9039 18.3426 21.9785 18.658C22.0473 18.9446 21.9097 19.2715 21.6343 19.3976C21.5024 19.4607 21.3475 19.4893 21.1983 19.4893C20.0166 19.4951 18.8348 19.4951 17.6531 19.4893C17.4695 19.4893 17.3892 19.5237 17.3318 19.7187C16.9303 21.0833 15.6338 22.0523 14.1193 21.9949C12.8286 21.9491 11.578 20.9915 11.2051 19.6843C11.1936 19.6269 11.1764 19.5696 11.1477 19.4951ZM14.2799 20.6246C15.2896 20.6246 16.1099 19.8047 16.1099 18.8013C16.1099 17.8094 15.2896 16.9837 14.2971 16.978C13.2932 16.9723 12.4671 17.7922 12.4614 18.7956C12.4557 19.8047 13.2703 20.6189 14.2799 20.6246Z" fill="white"/>
<path d="M4.5898 10.3152C4.80206 9.46088 5.26099 8.78431 6.00101 8.30842C6.54599 7.95867 7.1426 7.79813 7.79084 7.80386C9.00128 7.80959 10.4125 8.6123 10.8599 10.3095C10.9403 10.3095 11.0263 10.3095 11.1066 10.3095C14.4568 10.3095 17.807 10.3095 21.1572 10.3095C21.2547 10.3095 21.358 10.3037 21.4555 10.3267C21.794 10.4012 22.0234 10.7166 21.9948 11.0548C21.9661 11.3931 21.6907 11.6626 21.3408 11.6855C21.2719 11.6913 21.1974 11.6855 21.1285 11.6855C17.7898 11.6855 14.4568 11.6855 11.1181 11.6855C11.032 11.6855 10.946 11.6855 10.8485 11.6855C10.6362 12.5399 10.1773 13.2107 9.443 13.6866C8.90375 14.0363 8.31288 14.1969 7.67611 14.1911C6.35095 14.1797 4.98563 13.2852 4.58406 11.6855C4.38902 11.6855 4.18824 11.6855 3.98745 11.6855C2.89749 11.6855 1.81327 11.6913 0.723308 11.6855C0.195537 11.6855 -0.148661 11.1867 0.0635948 10.7223C0.195537 10.4299 0.436476 10.3095 0.751991 10.3095C1.94521 10.3152 3.14417 10.3095 4.33739 10.3095C4.4177 10.3152 4.49801 10.3152 4.5898 10.3152ZM7.68758 12.8208C8.67429 12.8437 9.51757 12.0468 9.54052 11.0663C9.56347 10.0342 8.78902 9.2086 7.76216 9.17993C6.76399 9.15127 5.91496 9.95971 5.89202 10.9631C5.87481 11.9665 6.6722 12.7979 7.68758 12.8208Z" fill="white"/>
</g>
<defs>
<clipPath id="clip0_449_7012">
<rect width="22" height="22" fill="white"/>
</clipPath>
</defs>
</svg>
