<svg width="51" height="51" viewBox="0 0 51 51" fill="none" xmlns="http://www.w3.org/2000/svg">
    <g clip-path="url(#clip0_262_5128)">
        <path d="M25.5669 51C11.378 51 0 39.6221 0 25.5669C0 11.378 11.378 0 25.5669 0C39.6221 0 51.1339 11.378 51.1339 25.5669C51 39.6221 39.6221 51 25.5669 51Z" fill="#357D3D"/>
        <path d="M15.5277 17.402H20.882L17.9371 23.8271H15.3938C13.6537 23.8271 12.1812 22.3547 12.1812 20.6145C12.3151 18.8744 13.7875 17.402 15.5277 17.402ZM25.7009 14.1894L29.9844 23.961H21.2836L25.7009 14.1894ZM31.4568 27.0397L34.2678 33.4649H16.8663L19.8111 27.0397H31.4568ZM37.882 30.1185C37.882 30.9216 37.6143 31.5909 37.0789 32.2602L34.6694 26.9059C36.4096 27.0397 37.882 28.3783 37.882 30.1185ZM15.5277 26.9059H16.5985L13.6537 33.3311H9.90562V36.4098H12.3151L10.7088 39.8901H14.0552L15.6615 36.5437H34.6694C35.071 36.5437 35.3387 36.5437 35.7403 36.4098L37.3466 39.8901H40.693L38.5513 35.2051C40.1576 34.0004 41.0946 32.1264 41.0946 30.1185C41.0946 26.6382 38.2836 23.8271 34.8033 23.8271H33.4647L30.3859 17.402H40.1576V14.3232H29.0474L25.7009 6.82715L22.3544 14.3232H15.5277C12.0474 14.3232 9.23633 17.1342 9.23633 20.6145C9.23633 24.0949 12.0474 26.9059 15.5277 26.9059Z" fill="white"/>
    </g>
    <defs>
        <clipPath id="clip0_262_5128">
            <rect width="51" height="51" fill="white"/>
        </clipPath>
    </defs>
</svg>
