<svg width="14" height="14" viewBox="0 0 14 14" fill="none" xmlns="http://www.w3.org/2000/svg">
<g clip-path="url(#clip0_31_286)">
<path d="M5.51022 13.2803C5.48214 13.2285 5.46855 13.1701 5.47086 13.1112C5.47317 13.0523 5.4913 12.9951 5.52334 12.9456L9.40615 7.00001L5.52334 1.05438C5.49098 1.00481 5.47263 0.947413 5.47024 0.888265C5.46785 0.829117 5.4815 0.770423 5.50975 0.718403C5.538 0.666384 5.5798 0.622976 5.63072 0.59278C5.68163 0.562583 5.73977 0.546723 5.79897 0.54688L8.12209 0.54688C8.1744 0.546583 8.226 0.558964 8.27248 0.582965C8.31895 0.606966 8.35892 0.641871 8.38897 0.684693L12.764 6.80969C12.8038 6.86514 12.8253 6.93171 12.8253 7.00001C12.8253 7.0683 12.8038 7.13487 12.764 7.19032L8.38897 13.3153C8.35892 13.3581 8.31895 13.393 8.27248 13.417C8.226 13.441 8.1744 13.4534 8.12209 13.4531L5.79897 13.4531C5.73967 13.4533 5.68144 13.4373 5.63056 13.4069C5.57968 13.3764 5.53807 13.3327 5.51022 13.2803Z" fill="white"/>
<path d="M8.53126 7.00001C8.53174 6.93165 8.51027 6.86494 8.47001 6.80969L4.09501 0.684693C4.06497 0.641871 4.025 0.606966 3.97852 0.582965C3.93204 0.558964 3.88044 0.546583 3.82814 0.54688L1.50282 0.54688C1.44363 0.546723 1.38549 0.562583 1.33458 0.59278C1.28366 0.622976 1.24186 0.666384 1.21361 0.718403C1.18536 0.770423 1.1717 0.829117 1.1741 0.888265C1.17649 0.947413 1.19484 1.00481 1.2272 1.05438L5.10345 7.00001L1.2272 12.9456C1.19484 12.9952 1.17649 13.0526 1.1741 13.1117C1.1717 13.1709 1.18536 13.2296 1.21361 13.2816C1.24186 13.3336 1.28366 13.377 1.33457 13.4072C1.38549 13.4374 1.44363 13.4533 1.50282 13.4531L3.82595 13.4531C3.87826 13.4534 3.92986 13.441 3.97633 13.417C4.02281 13.393 4.06278 13.3581 4.09282 13.3153L8.46782 7.19032C8.50886 7.13534 8.5311 7.06861 8.53126 7.00001ZM3.65751 1.20313L7.79845 7.00001L3.65751 12.7969L2.10876 12.7969L5.77064 7.17938C5.80494 7.12584 5.82317 7.06359 5.82317 7.00001C5.82317 6.93642 5.80494 6.87417 5.77064 6.82063L2.10876 1.20313L3.65751 1.20313Z" fill="white"/>
</g>
<defs>
<clipPath id="clip0_31_286">
<rect width="14" height="14" fill="white" transform="matrix(-4.37114e-08 1 1 4.37114e-08 0 0)"/>
</clipPath>
</defs>
</svg>
