<svg width="33" height="33" viewBox="0 0 33 33" fill="none" xmlns="http://www.w3.org/2000/svg">
<path d="M0 16.5071C0 12.4302 0 8.35337 0 4.27653C0 2.36893 1.08885 0.815849 2.85295 0.233442C3.2581 0.0983916 3.69701 0.0224276 4.11905 0.0139869C10.0697 -0.00289444 16.0204 -0.00289753 21.9711 0.00554314C24.1488 0.00554314 25.9382 1.71056 26.0901 3.87981C26.0986 4.02331 26.107 4.17524 26.107 4.31873C26.107 7.33205 26.107 10.3454 26.107 13.3587C26.107 13.8482 25.9466 14.245 25.4993 14.4897C25.0857 14.7176 24.6636 14.7008 24.2754 14.4475C23.8702 14.1859 23.7436 13.7892 23.7436 13.3334C23.7436 10.2863 23.7436 7.24764 23.7436 4.20056C23.7436 3.33117 23.2118 2.65592 22.3931 2.4449C22.2412 2.41114 22.0808 2.4027 21.9204 2.4027C16.012 2.4027 10.1035 2.4027 4.19502 2.4027C3.13149 2.4027 2.38027 3.14548 2.38027 4.209C2.38027 12.4049 2.38027 20.6008 2.38027 28.7882C2.38027 29.8686 3.12305 30.603 4.21189 30.603C7.99331 30.603 11.7747 30.603 15.5562 30.603C16.0288 30.603 16.4593 30.6958 16.7463 31.1179C17.2865 31.9028 16.7716 32.8988 15.7925 32.9833C15.6912 32.9917 15.5815 32.9833 15.4802 32.9833C11.7663 32.9833 8.04396 32.9833 4.33006 32.9833C1.81474 32.9833 0.00843861 31.1854 0.00843861 28.6616C-2.06084e-06 24.6185 0 20.567 0 16.5071Z" fill="#357D3D"/>
<path d="M25.5753 25.4626C27.3563 25.4964 29.0445 25.9016 30.5131 26.9735C32.1253 28.1468 32.8934 29.759 32.9356 31.7341C32.9525 32.384 32.4292 32.8989 31.7877 32.9326C31.18 32.958 30.5976 32.4769 30.5722 31.8438C30.5047 29.8096 29.3146 28.7039 27.5167 28.1468C25.8032 27.615 24.0982 27.7247 22.4861 28.5351C21.2031 29.185 20.4265 30.2063 20.359 31.6919C20.3421 32.1308 20.224 32.5275 19.8357 32.7807C19.4474 33.0424 19.0254 33.0761 18.6118 32.8482C18.1898 32.6203 17.9703 32.249 17.9788 31.7594C18.0378 29.818 18.8144 28.2396 20.3675 27.0748C21.9121 25.9269 23.6678 25.488 25.5753 25.4626Z" fill="#357D3D"/>
<path d="M21.0767 20.0268C21.0851 17.5706 23.0687 15.6123 25.5334 15.6208C27.9558 15.6292 29.9309 17.6381 29.9225 20.069C29.9141 22.483 27.8883 24.4835 25.4658 24.4666C23.0349 24.4497 21.0682 22.4577 21.0767 20.0268ZM23.094 20.0352C23.094 21.3689 24.1575 22.4493 25.4912 22.4493C26.7995 22.4493 27.8883 21.3773 27.8967 20.069C27.9052 18.7185 26.8248 17.655 25.4405 17.6465C24.166 17.6381 23.1025 18.7185 23.094 20.0352Z" fill="#357D3D"/>
<path d="M12.9316 9.93179C10.5428 9.93179 8.15414 9.93179 5.75699 9.93179C5.28431 9.93179 4.89604 9.77986 4.64282 9.34938C4.40648 8.93579 4.41492 8.53064 4.65126 8.12549C4.87915 7.72878 5.25898 7.57684 5.68946 7.57684C10.526 7.57684 15.354 7.57685 20.1905 7.58529C20.9249 7.58529 21.4398 8.10017 21.4313 8.77542C21.4229 9.45911 20.8995 9.94023 20.1652 9.94023C17.7596 9.93179 15.3456 9.93179 12.9316 9.93179Z" fill="#357D3D"/>
<path d="M9.80829 14.304C11.0997 14.304 12.3996 14.2955 13.691 14.304C14.611 14.3124 15.1766 15.0805 14.8896 15.8993C14.7208 16.3973 14.2734 16.6758 13.6404 16.6758C12.4165 16.6758 11.201 16.6758 9.97711 16.6758C8.60972 16.6758 7.24232 16.6843 5.87494 16.6758C5.1406 16.6758 4.63416 16.2369 4.58351 15.5954C4.52443 14.8695 5.06463 14.3124 5.84961 14.304C7.1748 14.2955 8.49155 14.304 9.80829 14.304Z" fill="#357D3D"/>
</svg>
