<svg width="39" height="39" viewBox="0 0 39 39" fill="none" xmlns="http://www.w3.org/2000/svg">
<path d="M28.9242 18.7966C29.8792 18.7966 30.7332 18.806 31.5872 18.7872C31.6882 18.7872 31.8076 18.7029 31.8903 18.6186C33.3503 17.1387 34.8012 15.6588 36.2521 14.1789C36.5827 13.8418 36.6011 13.542 36.2705 13.2048C35.3981 12.2963 34.5074 11.4065 33.6075 10.4886C32.7535 11.0037 31.8352 11.1723 30.871 10.985C30.1088 10.8351 29.4293 10.4792 28.8966 9.90784C27.758 8.68084 27.3906 6.89185 28.3549 5.13096C27.4733 4.22241 26.5826 3.31387 25.6826 2.41469C25.352 2.08686 25.0582 2.11497 24.7001 2.48963C22.7992 4.42848 20.8983 6.36733 18.9975 8.30618C16.9589 10.3855 9.34854 18.0366 7.30994 20.1253C7.01609 20.4344 6.69468 20.6499 6.23554 20.5C5.70293 20.322 5.46418 19.6851 5.76721 19.1981C5.84986 19.0669 5.96005 18.9358 6.07025 18.8234C9.99134 14.8146 19.4842 5.24336 23.4145 1.24388C24.3328 0.307241 25.4714 0.138645 26.4724 0.775563C26.6652 0.897326 26.8397 1.05656 27.005 1.22516C28.0059 2.23673 28.9977 3.24831 29.9894 4.26925C30.522 4.8125 30.5404 5.18716 30.0629 5.80534C29.3558 6.73262 29.3925 7.87533 30.1455 8.65274C30.9077 9.43016 32.0372 9.47699 32.9371 8.75577C33.5616 8.25935 33.9105 8.27809 34.4707 8.84007C35.4532 9.84228 36.445 10.8445 37.4276 11.8561C38.5295 12.98 38.5295 14.3944 37.4367 15.5277C36.4909 16.5018 35.5359 17.4666 34.5809 18.4407C34.489 18.5343 34.3697 18.6093 34.2686 18.6936C34.287 18.731 34.2962 18.7685 34.3146 18.806C34.8288 18.806 35.3522 18.7966 35.8665 18.806C36.8582 18.8341 37.6112 19.2743 38.0244 20.2109C38.1714 20.5388 38.2448 20.9321 38.2448 21.2974C38.2724 22.7773 38.254 24.2666 38.254 25.7465C38.254 26.4396 37.9693 26.7393 37.2898 26.8143C36.1328 26.936 35.3339 27.7696 35.3247 28.8843C35.3155 29.9989 36.1236 30.8699 37.2898 30.9917C37.9785 31.0666 38.254 31.3664 38.254 32.0969C38.254 33.5581 38.2632 35.0193 38.254 36.4711C38.2448 37.9884 37.2531 39 35.7655 39C24.8103 39 13.8642 39 2.90905 39C1.41224 39 0.420491 37.9884 0.411308 36.4711C0.402125 35.0099 0.411308 33.5487 0.411308 32.0969C0.411308 31.357 0.677608 31.0666 1.41224 30.9917C2.54174 30.8699 3.35901 29.9895 3.34065 28.8843C3.33147 27.7884 2.52337 26.9267 1.41224 26.8143C0.686791 26.7393 0.411308 26.449 0.411308 25.709C0.411308 24.2479 0.402125 22.7867 0.411308 21.3349C0.420491 19.8175 1.41224 18.806 2.89987 18.806C5.65474 18.7966 8.40043 18.7966 11.1553 18.806C11.4032 18.806 11.5869 18.731 11.7614 18.5531C15.2141 15.0219 18.6761 11.4908 22.1289 7.969C22.7992 7.28524 23.1941 7.27588 23.8552 7.95963C26.1969 10.3481 28.5385 12.7365 30.8801 15.1343C31.4954 15.7619 31.4954 16.1834 30.8801 16.8109C30.2557 17.4385 29.6221 18.0754 28.9242 18.7966ZM2.19279 32.6777C2.1836 32.7339 2.17442 32.7526 2.17442 32.7807C2.17442 33.9328 2.17442 35.0755 2.17442 36.2275C2.17442 37.0705 2.31217 37.211 3.12944 37.211C13.9377 37.211 24.746 37.211 35.5451 37.211C35.6277 37.211 35.7195 37.211 35.8022 37.211C36.2797 37.1923 36.5001 36.9769 36.5001 36.4898C36.5093 35.2722 36.5001 34.0452 36.5001 32.8275C36.5001 32.7807 36.4817 32.7339 36.4725 32.6964C34.7186 32.125 33.6534 30.9355 33.5891 29.0529C33.5248 27.0203 34.6176 25.7371 36.4909 25.0908C36.4909 23.92 36.4909 22.7492 36.4909 21.5784C36.4909 20.7355 36.3532 20.595 35.5359 20.595C24.7276 20.595 13.9193 20.595 3.12026 20.595C3.03762 20.595 2.94578 20.595 2.86314 20.595C2.38563 20.6137 2.16524 20.8291 2.16524 21.3162C2.15606 22.5338 2.16524 23.7608 2.16524 24.9785C2.16524 25.0253 2.1836 25.0721 2.19279 25.1189C4.14874 25.6809 5.09458 27.3201 5.09458 28.903C5.09458 30.4578 4.18547 32.1063 2.19279 32.6777ZM29.1721 16.0054C27.0876 13.8792 25.0306 11.7811 23.0196 9.72989C20.0719 12.7365 17.0966 15.7712 14.1397 18.7872C14.1397 18.7872 14.1765 18.7966 14.2224 18.7966C16.5548 18.7966 18.8873 18.7966 21.2197 18.7872C21.3667 18.7872 21.5411 18.6842 21.6513 18.5718C22.5421 17.682 23.4145 16.7735 24.3052 15.8836C24.4338 15.7525 24.5623 15.6214 24.7184 15.5183C25.0857 15.2561 25.5265 15.2936 25.8296 15.5839C26.1418 15.8836 26.1969 16.3613 25.9214 16.736C25.6734 17.0638 25.3796 17.3448 25.1041 17.6352C24.7552 18.0005 24.397 18.3657 23.9746 18.7966C24.8194 18.7966 25.5633 18.7966 26.3071 18.7966C26.3805 18.7966 26.4815 18.7591 26.5366 18.7123C27.4182 17.7944 28.2998 16.8858 29.1721 16.0054Z" fill="#357D3D"/>
<path d="M9.08009 24.4352C9.08009 27.4231 9.08009 30.3923 9.08009 33.3895C9.77799 33.3895 10.4575 33.3802 11.1371 33.3895C11.8166 33.3989 12.2115 33.886 12.0737 34.5041C11.9911 34.8882 11.6605 35.1692 11.2105 35.1785C10.2096 35.1973 9.20865 35.1973 8.20771 35.1785C7.62919 35.1692 7.31698 34.7945 7.30779 34.1763C7.29861 33.3895 7.30779 32.6028 7.30779 31.816C7.30779 29.1465 7.30779 26.4771 7.30779 23.8077C7.30779 22.9085 7.60164 22.6088 8.46483 22.6088C15.7101 22.6088 22.9554 22.6088 30.2099 22.6088C31.0731 22.6088 31.367 22.9085 31.367 23.8077C31.367 27.1983 31.367 30.589 31.367 33.9796C31.367 34.8882 31.0731 35.1785 30.1732 35.1785C26.1603 35.1785 13.6792 35.1785 9.66623 35.1785C9.46421 35.1785 9.24381 35.1598 9.05097 35.1036C8.70202 35.0006 8.48163 34.6446 8.5 34.27C8.50918 33.886 8.69284 33.5956 9.05097 33.4738C9.24381 33.4083 9.45502 33.3989 9.66623 33.3989C13.321 33.3989 25.4532 33.3989 29.108 33.3989C29.2549 33.3989 29.4018 33.3989 29.5763 33.3989C29.5763 30.411 29.5763 27.4418 29.5763 24.4446C22.7626 24.4352 15.9397 24.4352 9.08009 24.4352Z" fill="#357D3D"/>
<path d="M19.3373 31.5912C16.9773 31.5912 14.6173 31.5912 12.2665 31.5912C11.7063 31.5912 11.3941 31.3945 11.2564 30.9637C11.1002 30.4579 11.3574 29.9708 11.8624 29.8397C12.0002 29.8022 12.1563 29.7928 12.294 29.7928C16.9865 29.7928 21.6789 29.7928 26.3714 29.7928C26.7663 29.7928 27.1244 29.8584 27.3448 30.2518C27.6294 30.7482 27.3815 31.3851 26.8397 31.535C26.6652 31.5818 26.4816 31.5912 26.2979 31.5912C23.9747 31.5912 21.6606 31.5912 19.3373 31.5912Z" fill="#357D3D"/>
<path d="M12.0919 27.9944C11.6236 28.0038 11.2012 27.5729 11.2012 27.0952C11.2012 26.6269 11.6052 26.2148 12.0644 26.2054C12.5327 26.196 12.9551 26.6175 12.9551 27.1046C12.9459 27.5729 12.5511 27.985 12.0919 27.9944Z" fill="#357D3D"/>
<path d="M19.3468 27.9944C18.8785 28.0038 18.4561 27.5729 18.4561 27.0952C18.4561 26.6269 18.8601 26.2148 19.3192 26.2054C19.7876 26.196 20.21 26.6269 20.21 27.1046C20.21 27.5729 19.8059 27.985 19.3468 27.9944Z" fill="#357D3D"/>
<path d="M26.5825 27.9945C26.1142 27.9851 25.701 27.5449 25.7193 27.0766C25.7377 26.6083 26.1509 26.2055 26.6009 26.2149C27.0692 26.2242 27.4825 26.6645 27.4641 27.1328C27.4549 27.6011 27.0417 28.0039 26.5825 27.9945Z" fill="#357D3D"/>
<path d="M16.5736 27.086C16.5827 27.573 16.2062 27.9758 15.7379 27.9945C15.2604 28.0132 14.8472 27.6011 14.8472 27.1047C14.8472 26.6176 15.2329 26.2149 15.7012 26.2149C16.1603 26.2055 16.5644 26.5989 16.5736 27.086Z" fill="#357D3D"/>
<path d="M23.8276 27.0953C23.8368 27.5824 23.4511 27.9851 22.9828 27.9945C22.5053 28.0132 22.092 27.5918 22.1012 27.0953C22.1104 26.6083 22.4961 26.2149 22.9644 26.2149C23.4327 26.2055 23.8276 26.6083 23.8276 27.0953Z" fill="#357D3D"/>
<path d="M23.6075 13.6731C23.6075 14.1601 23.231 14.5629 22.7535 14.5723C22.276 14.5816 21.8628 14.1508 21.8628 13.6731C21.872 13.1954 22.2668 12.802 22.7352 12.802C23.2219 12.802 23.6075 13.186 23.6075 13.6731Z" fill="#357D3D"/>
<path d="M20.1916 15.4154C20.6691 15.4248 21.0456 15.8181 21.0365 16.3052C21.0273 16.7923 20.6416 17.1856 20.1733 17.1856C19.6957 17.1856 19.2825 16.7548 19.3009 16.2677C19.3192 15.79 19.7141 15.406 20.1916 15.4154Z" fill="#357D3D"/>
</svg>
